<svg width="136" height="136" viewBox="0 0 136 136" fill="none" xmlns="http://www.w3.org/2000/svg">
<g clip-path="url(#clip0_67_9932)">
<path d="M26.453 134.054L112.901 127.741C123.167 126.992 130.873 118.168 130.114 108.033L123.72 22.6846C122.96 12.5498 114.023 4.94162 103.758 5.69121L17.3097 12.0038C7.04435 12.7533 -0.661852 21.5769 0.0973904 31.7116L6.49127 117.06C7.25051 127.195 16.1877 134.803 26.453 134.054Z" fill="#EFFAF3"/>
<path d="M15.024 96.5672L12.2656 94.3959L28.1637 74.7071L39.775 81.9938L67.3962 52.6814L78.2434 56.6375L104.075 28.1348L106.703 30.4533L79.2685 60.7225L68.384 56.7479L40.3528 86.4836L28.9465 79.3257L15.024 96.5672Z" fill="#5FCF86"/>
<path d="M110.354 40.3343L93.6914 25.5033L114.715 21.0503L110.354 40.3343Z" fill="#5FCF86"/>
<path d="M88.9026 84.312L90.1886 84.588L90.58 90.3843L86.0883 89.3907C85.7273 89.3122 85.3854 89.1643 85.0823 88.9554C84.7791 88.7464 84.5206 88.4806 84.3216 88.173C84.1225 87.8654 83.9869 87.5221 83.9222 87.1627C83.8576 86.8033 83.8653 86.4349 83.945 86.0785C84.1099 85.3611 84.5545 84.7367 85.1824 84.3406C85.8104 83.9445 86.5711 83.8087 87.2998 83.9624L88.9026 84.312Z" fill="#EBC3A5"/>
<path d="M93.2441 85.2511L93.5423 89.7592L92.7782 90.8633L92.0513 90.6977L90.5789 90.3849L90.1875 84.5886L92.6291 85.1223L93.2441 85.2511Z" fill="#2E2837"/>
<path d="M89.3317 91.0102L90.6364 91.3046L91.0278 97.0825L86.536 96.1072C86.1689 96.0287 85.821 95.8795 85.5123 95.6683C85.2035 95.457 84.94 95.1877 84.7366 94.8759C84.5333 94.5641 84.3941 94.2158 84.3271 93.8509C84.2601 93.4859 84.2666 93.1115 84.3461 92.7491C84.4257 92.3866 84.5767 92.0432 84.7907 91.7383C85.0047 91.4335 85.2774 91.1733 85.5932 90.9726C85.9091 90.7718 86.2619 90.6344 86.6315 90.5682C87.0012 90.5021 87.3804 90.5085 87.7475 90.587L89.3317 91.0102Z" fill="#ED8F99"/>
<path d="M93.6747 91.9674L93.9728 96.4755L93.2087 97.5612L92.5005 97.3956L91.0281 97.0828L90.6367 91.3049L93.0783 91.8202L93.6747 91.9674Z" fill="#2E2837"/>
<path d="M89.3297 91.0104L90.6344 91.2865L91.0258 97.0827L86.534 96.1075C85.8074 95.9446 85.175 95.5057 84.7738 94.8858C84.3726 94.2658 84.235 93.5147 84.3907 92.7953C84.4679 92.4376 84.6163 92.0987 84.8273 91.7981C85.0383 91.4976 85.3077 91.2414 85.6198 91.0445C85.932 90.8477 86.2806 90.714 86.6455 90.6512C87.0104 90.5885 87.3843 90.598 87.7455 90.6792L89.3297 91.0104Z" fill="#EBC3A5"/>
<path d="M89.7784 97.7633L91.083 98.0577L91.4744 103.835L86.9827 102.86C86.6217 102.782 86.2799 102.634 85.9768 102.425C85.6737 102.216 85.4153 101.95 85.2162 101.642C85.0172 101.335 84.8815 100.992 84.8168 100.632C84.7522 100.273 84.7598 99.9046 84.8394 99.5481C84.9189 99.1917 85.0688 98.8542 85.2805 98.555C85.4921 98.2558 85.7614 98.0006 86.0729 97.8041C86.3844 97.6077 86.7321 97.4736 87.0961 97.4098C87.46 97.3459 87.8332 97.3535 88.1942 97.4321L89.7784 97.7633Z" fill="#EBC3A5"/>
<path d="M94.12 98.6644L94.4182 103.173L93.6541 104.258L92.9458 104.093L91.4548 103.78L91.082 98.002L93.5049 98.5356L94.12 98.6644Z" fill="#2E2837"/>
<path d="M111.847 61.7345L92.5941 62.9857C91.9445 63.0283 91.3385 63.3233 90.9089 63.8062C90.4792 64.289 90.2609 64.9204 90.3017 65.5618L92.6501 100.836L93.0974 107.755C93.1405 108.396 93.4393 108.994 93.9284 109.419C94.4175 109.843 95.0569 110.058 95.7067 110.018L114.941 108.785C115.59 108.743 116.197 108.448 116.626 107.965C117.056 107.482 117.274 106.851 117.233 106.209L116.767 99.2904L114.438 63.9978C114.419 63.681 114.337 63.3711 114.196 63.0857C114.055 62.8004 113.859 62.5453 113.618 62.335C113.378 62.1247 113.097 61.9635 112.793 61.8604C112.489 61.7573 112.168 61.7146 111.847 61.7345V61.7345Z" fill="white"/>
<path d="M90.3015 65.5618L92.6498 100.854L116.879 99.2904L114.531 63.9978C114.512 63.681 114.429 63.3711 114.289 63.0857C114.148 62.8004 113.952 62.5453 113.711 62.335C113.471 62.1247 113.19 61.9634 112.886 61.8604C112.582 61.7573 112.261 61.7146 111.94 61.7345L92.6871 62.9857C92.3574 62.995 92.0329 63.0696 91.733 63.2051C91.4331 63.3407 91.1639 63.5344 90.9413 63.7747C90.7188 64.015 90.5474 64.2971 90.4375 64.6041C90.3276 64.9111 90.2813 65.2368 90.3015 65.5618V65.5618Z" fill="#E5EBF7"/>
<path d="M92.6523 100.855L93.0997 107.755C93.1428 108.396 93.4416 108.995 93.9307 109.419C94.4198 109.843 95.0592 110.059 95.709 110.018L114.943 108.785C115.593 108.743 116.199 108.448 116.628 107.965C117.058 107.482 117.276 106.851 117.236 106.209L116.77 99.2905L92.6523 100.855Z" fill="white"/>
<path d="M114.007 101.959L95.7422 103.137L96.0031 107.203L114.268 106.026L114.007 101.959Z" fill="#5FCF86"/>
<path d="M96.2431 77.9458L96.5227 82.3436L92.441 82.6012V83.0612L96.5227 82.7852L96.8395 87.7718L92.7579 88.0294V88.4711L96.8395 88.2134L97.5291 98.665L99.3929 98.5546L99.0388 93.2736L104.723 92.9056L106.065 91.0655L107.929 92.1696L103.027 98.4075H103.642L110.892 89.2071L115.366 92.5008L115.198 90.1455L112.514 88.1582L112.085 81.8284L114.639 81.6628V81.2027L112.085 81.3683L111.563 73.4376L114.117 73.272V72.8304L111.563 72.996L111.097 66.0405L109.234 66.1509L109.7 73.1064L105.599 73.364L105.152 66.4269H103.791L104.239 73.3824L99.9707 73.6584L93.2797 67.1077H92.6647L102.077 76.3081L98.1815 78.829L98.0324 76.8233L91.8633 72.9592L92.0124 75.1673L96.2431 77.9458ZM104.295 74.9281L102.431 76.1425L100.288 74.1368L104.164 73.8792L104.295 74.9281ZM110.203 81.4604L103.344 81.902L103.046 77.3386L105.711 75.6273L105.581 73.7872L109.662 73.5296L110.203 81.4604ZM98.722 88.103L105.581 87.6614L105.786 90.7527L104.5 92.464L99.0388 92.8136L98.722 88.103ZM98.4238 82.6748L110.277 81.902L110.725 88.655L108.209 91.8752L106.345 90.6975L106.121 87.1646L98.8151 87.643L98.4238 82.6748ZM98.2747 80.4483L102.673 77.6146L102.953 81.9388L98.4051 82.2332L98.2747 80.4483Z" fill="white"/>
<path d="M93.9336 98.8858L96.2074 98.7387L95.5737 89.0046L93.2812 89.1519L93.9336 98.8858Z" fill="#D4E0F6"/>
<path d="M108.438 97.4503L112.482 92.2797L110.861 91.0469L106.816 96.2175L108.438 97.4503Z" fill="#D4E0F6"/>
<path d="M106.984 88.2132L109.5 88.0476L109.165 82.969L106.648 83.1162L106.984 88.2132Z" fill="#D4E0F6"/>
<path d="M99.8435 86.2259L105.696 85.8394L105.528 83.1897L99.6758 83.5762L99.8435 86.2259Z" fill="#D4E0F6"/>
<path d="M93.169 87.3112L95.4428 87.1639L95.2378 83.8518L92.9453 83.999L93.169 87.3112Z" fill="#D4E0F6"/>
<path d="M100.661 98.4629H101.836L101.537 94.1387H100.363L100.661 98.4629Z" fill="#D4E0F6"/>
<path d="M105.88 80.0253L104.352 80.1358V81.1478L108.657 80.8718L108.284 75.3516L105.6 76.9524L105.88 80.0253Z" fill="#D4E0F6"/>
<path d="M99.6406 80.6141V81.4606L101.859 81.3134L101.728 79.3445L99.6406 80.6141Z" fill="#D4E0F6"/>
<path d="M98.8179 77.0993H99.8989L99.7685 75.02H98.6875L98.8179 77.0993Z" fill="#D4E0F6"/>
<path d="M94.8477 73.3087L96.7114 75.1488L97.8856 73.9712L96.0218 72.1311L94.8477 73.3087Z" fill="#D4E0F6"/>
<path d="M92.8359 71.3764L93.656 72.1676L94.8302 71.0084L94.0101 70.1987L92.8359 71.3764Z" fill="#D4E0F6"/>
<path d="M106.387 72.8674L108.25 72.7385V71.5051L106.387 71.6339V72.8674Z" fill="#D4E0F6"/>
<path d="M106.237 70.585L108.101 70.4561L107.915 67.7512L106.051 67.88L106.237 70.585Z" fill="#D4E0F6"/>
<path d="M102.618 74.3395C102.688 74.3345 102.758 74.3435 102.825 74.366C102.891 74.3885 102.952 74.4241 103.005 74.4705C103.057 74.5169 103.099 74.5733 103.129 74.6362C103.158 74.6991 103.175 74.7672 103.177 74.8365C103.192 74.9137 103.189 74.993 103.169 75.069C103.149 75.1449 103.113 75.2156 103.062 75.276C103.011 75.3364 102.948 75.3851 102.876 75.4185C102.804 75.4518 102.725 75.4691 102.646 75.4691C102.567 75.4691 102.488 75.4518 102.416 75.4185C102.344 75.3851 102.281 75.3364 102.23 75.276C102.179 75.2156 102.143 75.1449 102.123 75.069C102.103 74.993 102.1 74.9137 102.115 74.8365C102.119 74.7062 102.174 74.5824 102.267 74.4901C102.361 74.3979 102.486 74.344 102.618 74.3395V74.3395Z" fill="#D4E0F6"/>
<path d="M106.255 92.0593C106.323 92.0543 106.392 92.0627 106.457 92.084C106.523 92.1054 106.583 92.1393 106.635 92.1838C106.687 92.2283 106.729 92.2825 106.76 92.3433C106.791 92.404 106.809 92.4702 106.814 92.5379C106.819 92.6081 106.81 92.6785 106.787 92.7452C106.765 92.8119 106.729 92.8735 106.682 92.9265C106.635 92.9795 106.578 93.023 106.515 93.0542C106.451 93.0854 106.382 93.1039 106.311 93.1086C106.171 93.1093 106.037 93.0588 105.934 92.9668C105.83 92.8749 105.765 92.7483 105.751 92.6116C105.746 92.5424 105.755 92.4729 105.778 92.4072C105.801 92.3416 105.837 92.2812 105.884 92.2296C105.931 92.178 105.988 92.1364 106.052 92.1071C106.115 92.0779 106.184 92.0616 106.255 92.0593V92.0593Z" fill="#D4E0F6"/>
<path d="M113.095 80.0432H113.971L113.599 74.5229H112.723L113.095 80.0432Z" fill="#D4E0F6"/>
<path d="M112.253 67.476H113.129L113.036 65.948H112.16L112.253 67.476Z" fill="#D4E0F6"/>
<path d="M100.289 73.014L103.103 72.8301L102.693 66.5554L99.8789 66.7394L100.289 73.014Z" fill="#D4E0F6"/>
<path d="M112.182 97.7633L115.127 97.5609L114.941 94.6536L111.996 94.856L112.182 97.7633Z" fill="#D4E0F6"/>
<path d="M96.5641 68.9106L98.5397 68.7818L98.4092 66.8313L96.4336 66.9601L96.5641 68.9106Z" fill="#D4E0F6"/>
<path d="M113.449 85.3429H114.325L114.157 83.0244H113.281L113.449 85.3429Z" fill="#D4E0F6"/>
<path d="M92.668 79.6571L94.9418 79.5098V78.4053L92.668 78.5525V79.6571Z" fill="#D4E0F6"/>
<path d="M104.76 75.1113L104.387 69.5911H104.835L105.226 75.3689L97.5846 80.3739L98.4047 92.8864L102.132 92.6288V93.0888L97.8643 93.3648L96.9883 80.1531L104.76 75.1113Z" fill="#4E82EB"/>
<path d="M104.705 70.2542C104.795 70.2452 104.882 70.2183 104.961 70.175C105.041 70.1318 105.11 70.0732 105.166 70.0026C105.222 69.9321 105.262 69.8512 105.286 69.7647C105.309 69.6782 105.314 69.588 105.301 69.4995C105.278 69.3217 105.184 69.1602 105.041 69.0499C104.898 68.9397 104.717 68.8895 104.537 68.9104C104.359 68.9377 104.198 69.031 104.087 69.1712C103.977 69.3114 103.924 69.488 103.94 69.6652C103.964 69.8429 104.057 70.0044 104.2 70.1147C104.343 70.2249 104.524 70.2751 104.705 70.2542V70.2542Z" fill="white"/>
<path d="M104.595 69.1501C104.653 69.145 104.711 69.1516 104.766 69.1695C104.821 69.1874 104.872 69.2161 104.916 69.2539C104.959 69.2918 104.995 69.338 105.02 69.3898C105.045 69.4415 105.059 69.4978 105.061 69.5551C105.068 69.6429 105.049 69.7308 105.005 69.8076C104.962 69.8844 104.896 69.9466 104.816 69.9861C104.736 70.0257 104.647 70.0409 104.558 70.0296C104.47 70.0184 104.387 69.9813 104.32 69.9231C104.253 69.8649 104.205 69.7883 104.182 69.703C104.16 69.6178 104.164 69.5279 104.193 69.4448C104.223 69.3617 104.277 69.2892 104.349 69.2367C104.42 69.1842 104.506 69.154 104.595 69.1501V69.1501Z" fill="#5A9F86"/>
<path d="M101.594 92.6475H102.917C102.868 92.5022 102.773 92.3766 102.645 92.2902C102.517 92.2037 102.364 92.1611 102.209 92.1689C102.069 92.1776 101.936 92.2282 101.826 92.3136C101.716 92.3991 101.635 92.5156 101.594 92.6475V92.6475Z" fill="white"/>
<path d="M101.578 92.832C101.562 92.9233 101.562 93.0168 101.578 93.1081C101.644 93.2203 101.739 93.3124 101.855 93.3742C101.97 93.4359 102.1 93.4649 102.231 93.4579C102.363 93.4484 102.489 93.4018 102.595 93.3234C102.7 93.2451 102.781 93.1384 102.827 93.0161C102.855 92.926 102.855 92.8299 102.827 92.7399C102.844 92.686 102.844 92.6281 102.827 92.5742H101.504L101.578 92.832Z" fill="white"/>
<path d="M102.153 92.3349C102.268 92.3298 102.381 92.3691 102.468 92.4446C102.555 92.5202 102.609 92.626 102.619 92.7399C102.624 92.797 102.617 92.8546 102.599 92.909C102.581 92.9635 102.552 93.0138 102.513 93.0568C102.475 93.0999 102.428 93.1347 102.376 93.1594C102.323 93.184 102.267 93.1979 102.209 93.2001C102.093 93.2053 101.98 93.166 101.893 93.0905C101.806 93.015 101.752 92.9091 101.743 92.7951C101.737 92.6809 101.777 92.5692 101.854 92.4834C101.93 92.3976 102.037 92.3443 102.153 92.3349V92.3349Z" fill="#5A9F86"/>
<path d="M101.873 88.5627H102.152C102.43 88.5645 102.702 88.6392 102.941 88.7791C103.18 88.9189 103.376 89.1189 103.511 89.3586C103.646 89.5983 103.714 89.8691 103.707 90.1431C103.701 90.4171 103.621 90.6846 103.476 90.918L102.339 92.7581L100.941 90.918C100.806 90.7103 100.724 90.4742 100.699 90.2289C100.675 89.9835 100.709 89.7359 100.8 89.5063C100.891 89.2767 101.035 89.0715 101.222 88.9075C101.408 88.7436 101.631 88.6254 101.873 88.5627V88.5627Z" fill="#60BA8C"/>
<path d="M108.619 66.8131C108.739 66.9379 108.833 67.0855 108.894 67.2471C108.955 67.4087 108.981 67.5808 108.973 67.7529C108.964 67.9251 108.92 68.0937 108.843 68.2485C108.766 68.4033 108.658 68.541 108.526 68.6532C108.335 68.8149 108.1 68.9177 107.851 68.949C107.601 68.9804 107.348 68.9388 107.122 68.8295C106.896 68.7202 106.708 68.548 106.58 68.3341C106.453 68.1203 106.391 67.8741 106.404 67.6261C106.417 67.3782 106.502 67.1393 106.651 66.9391C106.8 66.7388 107.004 66.586 107.24 66.4995C107.476 66.413 107.732 66.3966 107.977 66.4523C108.222 66.5081 108.445 66.6335 108.619 66.8131V66.8131Z" fill="white"/>
<path d="M107.896 67.476L108.697 67.8256L106.945 68.3224L107.598 66.6479L107.896 67.476Z" fill="#60BA8C"/>
<path d="M111.809 61.3111L92.5749 62.544C91.8099 62.596 91.0968 62.9442 90.5907 63.5129C90.0846 64.0815 89.8264 64.8245 89.8724 65.5801L92.6681 107.791C92.7208 108.547 93.0735 109.251 93.6494 109.75C94.2254 110.25 94.978 110.505 95.7433 110.46L114.978 109.208H115.201C115.929 109.14 116.599 108.789 117.065 108.233C117.313 107.956 117.501 107.632 117.62 107.281C117.738 106.93 117.784 106.559 117.755 106.191L114.978 63.9976C114.957 63.6128 114.857 63.2362 114.685 62.8904C114.513 62.5446 114.271 62.2369 113.975 61.9858C113.679 61.7347 113.334 61.5455 112.962 61.4295C112.59 61.3136 112.198 61.2733 111.809 61.3111V61.3111ZM93.5441 107.736L90.7484 65.5249C90.7125 65.0006 90.8885 64.4836 91.2378 64.087C91.5871 63.6904 92.0813 63.4465 92.6122 63.4088L111.846 62.176C112.378 62.1406 112.901 62.3143 113.303 62.6591C113.705 63.004 113.952 63.4919 113.99 64.0161L116.785 106.209C116.806 106.469 116.773 106.731 116.69 106.978C116.607 107.226 116.475 107.455 116.302 107.652C116.128 107.849 115.917 108.01 115.68 108.125C115.443 108.241 115.185 108.309 114.922 108.325L95.6874 109.576C95.1563 109.612 94.6326 109.438 94.2309 109.093C93.8293 108.748 93.5823 108.26 93.5441 107.736Z" fill="#2E2837"/>
<path d="M103.195 87.3483C103.213 87.5438 103.271 87.7339 103.363 87.9075C103.456 88.0812 103.583 88.2351 103.736 88.3604C103.893 88.5035 104.078 88.6132 104.28 88.6828C104.482 88.7524 104.697 88.7804 104.91 88.7651H106.513L106.401 87.2195L103.195 87.3483Z" fill="white"/>
<path d="M115.334 121.941L132.276 120.856L129.648 110.459L123.833 87.4951L116.117 81.9749L116.676 90.5864L114.365 88.3967C113.807 87.8687 113.146 87.4604 112.421 87.1976C111.696 86.9347 110.923 86.823 110.153 86.8694L106.425 87.1086L106.537 88.6543H104.934C104.721 88.6696 104.506 88.6416 104.304 88.572C104.102 88.5023 103.917 88.3926 103.76 88.2495C103.607 88.1242 103.48 87.9704 103.387 87.7967C103.294 87.623 103.237 87.433 103.219 87.2374L101.355 87.3663V88.4335C101.403 89.085 101.608 89.7158 101.952 90.2736C102.287 90.7927 102.739 91.2287 103.272 91.5478C103.805 91.8668 104.406 92.0605 105.027 92.1136L110.339 92.6473L113.638 97.0082L114.29 106.724C114.347 107.513 114.624 108.271 115.092 108.914C115.086 108.95 115.086 108.987 115.092 109.024H114.905L106.649 109.558L108.009 110.698L114.905 116.439L115.334 121.941Z" fill="#EBC3A5"/>
<path d="M116.637 90.6237L119.805 93.6046L121.24 89.538L121.147 88.1028L116.637 90.6237Z" fill="#2E2837"/>
<path d="M116.339 110.349L108.083 110.883L106.219 109.337L115.128 109.19C115.294 109.409 115.481 109.613 115.687 109.797L116.19 110.239L116.339 110.349Z" fill="#2E2837"/>
<path d="M118.927 116.385L114.957 116.624V117.434L118.927 117.195V116.385Z" fill="#2E2837"/>
<path d="M136 134.712L134.975 119.127C134.93 118.446 134.7 117.789 134.31 117.226C133.92 116.663 133.384 116.214 132.758 115.925L130.801 115.005L108.957 124.794L116.263 136L136 134.712Z" fill="#F26A2B"/>
<path d="M72.8544 31.2441L72.6121 31.0968C70.0677 29.6188 67.6325 27.9648 65.3248 26.147C64.4861 25.4846 63.7219 24.8406 63.0323 24.1965C60.0503 21.4548 58.522 19.0812 59.3048 17.8483L61.6159 15.2722L65.6975 17.7563C69.8187 19.0668 73.7668 20.8583 77.458 23.0925C80.0675 24.6137 82.5593 26.3235 84.9131 28.2079C86.3259 29.3239 87.6414 30.5549 88.8457 31.8881L92.6851 34.225L90.5044 36.7643C88.4356 38.2363 80.9246 35.9363 72.8544 31.2441Z" fill="#0EA971"/>
<path d="M72.8555 31.2441C73.511 31.0764 74.0853 30.6854 74.4769 30.14C74.752 29.7565 74.8805 29.289 74.8396 28.8208C74.7987 28.3525 74.5909 27.9137 74.2533 27.5823L74.7379 26.2759C78.1786 26.639 81.5825 27.2853 84.9141 28.208C86.327 29.3239 87.6424 30.555 88.8467 31.8881L92.6861 34.225L90.5055 36.7643C88.4367 38.2364 80.9256 35.9363 72.8555 31.2441Z" fill="#5FCF86"/>
<path d="M92.6856 34.1888C91.3623 36.4153 83.2362 34.06 74.5324 28.9446C65.8285 23.8292 59.8644 17.9041 61.1877 15.7144C62.511 13.5247 70.6557 15.8433 79.3409 20.9587C88.0261 26.0741 94.0275 31.9807 92.6856 34.1888Z" fill="#5FCF86"/>
<path d="M91.4581 33.4528C90.3026 35.3849 82.4933 32.9744 74.8145 28.4846C67.1358 23.9948 61.209 18.3458 62.3832 16.3953C63.5573 14.4448 71.4038 16.9289 79.064 21.4187C86.7241 25.9085 92.6323 31.5207 91.4581 33.4528Z" stroke="white" stroke-width="0.541438" stroke-miterlimit="10"/>
<path d="M47.9551 116.329H47.6755C44.7606 115.907 41.8778 115.292 39.0462 114.489C38.0025 114.176 37.0519 113.864 36.176 113.532C32.3552 112.097 30.0255 110.459 30.2492 109.043L31.4047 105.786L36.1387 106.577C40.4579 106.264 44.7995 106.455 49.0733 107.147C52.0863 107.578 55.0637 108.224 57.9822 109.079C59.7033 109.569 61.3854 110.184 63.0144 110.919L67.4502 111.674L66.4065 114.82C65.0646 117.01 57.2181 117.673 47.9551 116.329Z" fill="#0EA971"/>
<path d="M47.9526 116.329C48.4993 115.933 48.8882 115.36 49.0522 114.71C49.1561 114.249 49.0938 113.768 48.876 113.348C48.6582 112.928 48.2986 112.596 47.8594 112.41V111.03C51.1925 110.097 54.5952 109.426 58.0356 109.024C59.7568 109.514 61.4388 110.129 63.0678 110.864L67.5036 111.619L66.4599 114.765C65.0621 117.01 57.2156 117.673 47.9526 116.329Z" fill="#5FCF86"/>
<path d="M67.4491 111.674C67.0577 114.232 58.6334 115.079 48.6249 113.514C38.6164 111.95 30.8259 108.749 31.2172 106.154C31.6086 103.56 40.0329 102.768 50.0414 104.314C60.0499 105.86 67.8405 109.135 67.4491 111.674Z" fill="#5FCF86"/>
<path d="M66.034 111.453C65.6985 113.68 57.5351 114.36 48.7194 113.035C39.9038 111.711 32.2436 108.73 32.5977 106.485C32.9519 104.24 41.1339 103.614 49.9495 104.921C58.7652 106.227 66.3694 109.208 66.034 111.453Z" stroke="white" stroke-width="0.541438" stroke-miterlimit="10"/>
<path d="M25.8341 19.4674L25.9646 19.2098C27.2091 16.574 28.2678 13.8565 29.133 11.0767C29.4499 10.0646 29.7108 9.08937 29.9158 8.18773C30.8104 4.24997 30.6986 1.43466 29.3939 0.827432L26.0019 -0.019043L24.0449 4.30515C21.3998 7.71401 19.1727 11.4199 17.4098 15.3456C16.1157 18.0661 15.0256 20.8767 14.1482 23.7548C13.6249 25.4578 13.2385 27.199 12.9927 28.9621L11.1289 33.0288L14.3719 33.8936C16.9812 33.9304 21.8642 27.8397 25.8341 19.4674Z" fill="#0EA971"/>
<path d="M25.8341 19.4683C25.1963 19.6991 24.4963 19.6991 23.8585 19.4683C23.4147 19.3037 23.0432 18.9909 22.8083 18.5843C22.5734 18.1777 22.49 17.7027 22.5725 17.2418L21.4356 16.4321C18.8092 18.654 16.3719 21.085 14.1482 23.7005C13.6249 25.4035 13.2385 27.1447 12.9927 28.9078L11.1289 32.9744L14.3719 33.8393C16.9812 33.9313 21.8642 27.8406 25.8341 19.4683Z" fill="#5FCF86"/>
<path d="M11.1644 32.9742C13.5127 34.0599 18.8804 27.5828 23.1485 18.5112C27.4165 9.43963 28.9262 1.2329 26.5592 0.110452C24.1922 -1.01199 18.8432 5.5019 14.5937 14.5735C10.3443 23.645 8.79739 31.8886 11.1644 32.9742Z" fill="#5FCF86"/>
<path d="M11.74 31.6675C13.8275 32.6244 18.8783 26.2761 22.6245 18.2902C26.3707 10.3043 28.0481 2.33676 25.9794 1.37992C23.9106 0.423077 18.8411 6.90014 15.0949 14.8309C11.3487 22.7616 9.65261 30.7107 11.74 31.6675Z" stroke="white" stroke-width="0.541438" stroke-miterlimit="10"/>
<path d="M70.2809 69.5554L39.8267 79.2526C39.2946 79.4227 38.7334 79.486 38.1761 79.4388C37.6189 79.3915 37.0768 79.2347 36.5818 78.9775C36.0869 78.7203 35.649 78.368 35.2941 77.9412C34.9391 77.5144 34.6742 77.0219 34.515 76.4925L28.3086 56.0125L28.5695 54.5404C29.5387 53.2156 30.5638 51.9459 31.6448 50.6947L74.9963 37.3541C75.5225 37.1917 76.0759 37.1333 76.625 37.1823C77.1741 37.2314 77.708 37.3868 78.1962 37.6397C78.6844 37.8927 79.1172 38.2382 79.47 38.6565C79.8228 39.0747 80.0886 39.5576 80.2521 40.0774L86.7567 60.6863C87.0894 61.7379 86.9859 62.877 86.4687 63.8533C85.9515 64.8297 85.0631 65.5635 83.9983 65.8937L75.4995 68.5066L82.9546 77.1365C82.9927 77.1934 83.0082 77.2621 82.998 77.3295C82.9879 77.397 82.9528 77.4583 82.8996 77.5017C82.8463 77.5451 82.7787 77.5675 82.7097 77.5647C82.6407 77.5618 82.5753 77.5338 82.5259 77.4862L70.2809 69.5554Z" fill="white" stroke="#102139" stroke-width="1.43481" stroke-miterlimit="10"/>
<path d="M32.6719 54.4666L39.3442 75.5906L83.2735 62.0661" stroke="#102139" stroke-width="1.00166" stroke-linecap="round" stroke-linejoin="round"/>
<path d="M45.6439 56.81L38.4375 59.0273L42.7186 72.5894L49.9251 70.372L45.6439 56.81Z" fill="#DF6D39"/>
<path d="M54.1556 49.3154L46.9492 51.5327L52.6389 69.5568L59.8453 67.3394L54.1556 49.3154Z" fill="#5FCF86"/>
<path d="M62.9482 44.381L55.7773 46.6167L61.5141 64.5519L68.6849 62.3162L62.9482 44.381Z" fill="#5CB3FF"/>
<path d="M72.4252 40.6442L65.2188 42.8616L71.7846 63.6613L78.9911 61.4439L72.4252 40.6442Z" fill="#5FCF86"/>
</g>
<defs>
<clipPath id="clip0_67_9932">
<rect width="136" height="136" fill="white"/>
</clipPath>
</defs>
</svg>
