<svg width="142" height="136" viewBox="0 0 142 136" fill="none" xmlns="http://www.w3.org/2000/svg">
<path d="M116.793 129.408L34.0753 132.281C26.3066 132.552 19.4671 125.952 18.8026 117.536L11.5559 25.6469C10.8925 17.2373 16.6597 10.1958 24.4285 9.92532L107.145 7.04634C114.914 6.77589 121.753 13.3757 122.418 21.7917L129.665 113.687C130.323 122.097 124.562 129.138 116.793 129.408Z" fill="#EFFAF3"/>
<mask id="mask0_67_10009" style="mask-type:alpha" maskUnits="userSpaceOnUse" x="11" y="7" width="119" height="126">
<path d="M116.793 129.408L34.0753 132.28C26.3066 132.551 19.4671 125.951 18.8026 117.535L11.5559 25.6462C10.8925 17.2365 16.6597 10.195 24.4285 9.92459L107.145 7.0456C114.914 6.77516 121.753 13.375 122.418 21.791L129.665 113.686C130.323 122.097 124.562 129.137 116.793 129.408Z" fill="#EFFAF3"/>
</mask>
<g mask="url(#mask0_67_10009)">
<path d="M87.3418 54.044L85.3841 54.4761L84.807 63.3069L91.5711 61.8158C93.8646 61.3118 95.3108 59.0471 94.8068 56.7536C94.5152 55.4386 93.6432 54.3925 92.5172 53.8478C91.6869 53.4393 90.716 53.3046 89.7446 53.518L87.3418 54.044Z" fill="#F5C2A2"/>
<path d="M80.7889 55.4912L80.3395 62.3769L81.4971 64.041L82.5787 63.7986L84.8066 63.3077L85.3837 54.4769L81.7087 55.2927L80.7889 55.4912Z" fill="#2F2738"/>
<path d="M86.6738 64.2848L84.7161 64.7168L84.139 73.5476L90.9032 72.0565C93.1967 71.5525 94.6429 69.2878 94.1388 66.9944C93.8473 65.6793 92.9753 64.6333 91.8492 64.0886C91.0189 63.68 90.048 63.5453 89.0766 63.7587L86.6738 64.2848Z" fill="#FF8A98"/>
<path d="M80.1248 65.7319L79.6754 72.6176L80.8331 74.2817L81.9147 74.0393L84.1426 73.5485L84.7197 64.7176L81.0456 65.5264L80.1248 65.7319Z" fill="#2F2738"/>
<path d="M86.675 64.2783L84.7172 64.7103L84.1401 73.5412L90.9043 72.0501C93.1908 71.5451 94.644 69.2814 94.1321 66.994C93.8405 65.6789 92.9685 64.6329 91.8425 64.0882C91.0122 63.6797 90.0413 63.545 89.0699 63.7584L86.675 64.2783Z" fill="#F5C2A2"/>
<path d="M86.002 74.5179L84.0442 74.95L83.4671 83.7808L90.2313 82.2897C92.5248 81.7856 93.971 79.521 93.4669 77.2275C93.1754 75.9125 92.3034 74.8664 91.1774 74.3217C90.347 73.9132 89.3762 73.7785 88.4047 73.9919L86.002 74.5179Z" fill="#F5C2A2"/>
<path d="M79.4561 75.9639L79.0066 82.8497L80.1573 84.5129L81.2459 84.2714L83.4668 83.7797L84.0439 74.9488L80.3759 75.7655L79.4561 75.9639Z" fill="#2F2738"/>
<path d="M52.743 19.5621L81.7588 21.4572C83.8027 21.5901 85.3461 23.3518 85.2142 25.3887L81.6938 79.2973L81.0019 89.8546C80.8691 91.8985 79.1074 93.442 77.0705 93.31L48.0547 91.4148C46.0178 91.2828 44.4744 89.5211 44.6063 87.4842L45.2982 76.9269L48.8186 23.0183C48.9444 20.9735 50.7061 19.4301 52.743 19.5621Z" fill="white"/>
<path d="M85.2113 25.3966L81.6909 79.3052L45.2892 76.9269L48.8096 23.0183C48.9424 20.9744 50.7041 19.431 52.741 19.5629L81.7568 21.4581C83.8007 21.591 85.3441 23.3527 85.2113 25.3966Z" fill="#E4ECF9"/>
<path d="M81.6895 79.3057L80.9977 89.863C80.8648 91.907 79.1031 93.4504 77.0662 93.3184L48.0505 91.4233C46.0135 91.2913 44.4701 89.5296 44.6021 87.4926L45.2939 76.9353L81.6895 79.3057Z" fill="white"/>
<path d="M49.481 80.9923L77.0195 82.7881L76.6135 89.0149L49.075 87.219L49.481 80.9923Z" fill="#5CB3FF"/>
<path d="M52.7874 18.9058L81.8031 20.801C84.1995 20.9562 86.023 23.0369 85.8678 25.4333L81.6617 89.907C81.5064 92.3034 79.4258 94.127 77.0294 93.9717L48.0137 92.0765C47.9288 92.0731 47.8449 92.0627 47.7609 92.0523C46.6475 91.9212 45.6789 91.3676 44.9899 90.5646C44.2764 89.73 43.8731 88.6284 43.949 87.4442L48.155 22.9705C48.3103 20.5741 50.391 18.7505 52.7874 18.9058ZM80.3445 89.8146L84.5506 25.3409C84.6584 23.6704 83.389 22.2198 81.7116 22.1111L52.6958 20.2159C51.0184 20.1073 49.5678 21.3767 49.4591 23.0541L45.253 87.5279C45.1443 89.2054 46.4137 90.656 48.0912 90.7647L77.1069 92.6598C78.7844 92.7685 80.2359 91.4921 80.3445 89.8146Z" fill="#2F2738"/>
<path d="M65.7772 58.6931C65.7078 59.3097 65.4057 59.8548 64.967 60.2409C64.489 60.6576 63.856 60.8917 63.1861 60.8512L60.7775 60.7371L60.9284 58.3756L65.7772 58.6931Z" fill="white"/>
<path d="M47.4768 111.522L21.914 109.856L25.8999 93.9951C25.9086 93.9819 25.9235 93.9767 25.9313 93.9705L34.7125 58.8749L46.3565 50.522L45.4982 63.6804L49.0048 60.3286C50.7052 58.7065 53.0045 57.8692 55.3449 58.0175L60.9275 58.3763L60.7766 60.7377L63.1852 60.8519C63.8542 60.8994 64.4881 60.6583 64.9661 60.2416C65.4047 59.8555 65.7068 59.3104 65.7762 58.6938L68.6519 58.8801L68.5432 60.5007C68.4785 61.5371 68.1532 62.4985 67.645 63.3307C66.666 64.9215 64.98 66.0267 63.016 66.2235L55.0085 67.0274L50.0191 73.6838L49.0521 88.5196C48.9719 89.7388 48.5496 90.9084 47.8456 91.8868C47.8107 91.9393 47.7688 91.991 47.7268 92.0426C47.7338 92.0435 47.7478 92.0452 47.7548 92.0461C47.8388 92.0565 47.9227 92.0669 48.0076 92.0703L60.454 92.8829L58.3978 94.6242L48.0073 103.41L47.4768 111.522Z" fill="#F5C2A2"/>
<path d="M45.4991 63.6797L40.7351 68.2325L38.5703 62.0313L38.7091 59.8247L45.4991 63.6797Z" fill="#2F2738"/>
<path d="M45.9434 93.816L58.3968 94.6295L61.1758 92.2744L47.7259 92.0478C47.4787 92.3795 47.2 92.6788 46.895 92.9607L46.1191 93.6602L45.9434 93.816Z" fill="#2F2738"/>
<path d="M42.0234 103.025L48.0039 103.415L47.9232 104.653L41.9426 104.263L42.0234 103.025Z" fill="#2F2738"/>
<path d="M16.2965 131.042L17.8518 107.227C17.9872 105.106 19.2641 103.232 21.1812 102.326L24.1551 100.919L57.077 115.881L46.0801 132.99L16.2965 131.042Z" fill="#F26524"/>
<rect x="51.375" y="27.2725" width="31.0607" height="19.62" rx="2.62" transform="rotate(3.57389 51.375 27.2725)" fill="#9A9A9A" fill-opacity="0.7"/>
<rect x="53.8516" y="30.2297" width="5.31031" height="3.18075" transform="rotate(3.57389 53.8516 30.2297)" fill="#E4ECF9"/>
<path d="M53.2891 39.2219L78.729 40.8108L78.6298 42.3981L53.1899 40.8092L53.2891 39.2219Z" fill="#E4ECF9"/>
<path d="M53.0586 42.9258L64.7185 43.654L64.6194 45.2413L52.9595 44.5131L53.0586 42.9258Z" fill="#E4ECF9"/>
</g>
<path d="M116.776 59.3552C125.352 61.876 134.349 56.9668 136.87 48.3901C139.39 39.8134 134.481 30.8171 125.904 28.2963C117.328 25.7755 108.331 30.6847 105.811 39.2614C103.29 47.8381 108.199 56.8344 116.776 59.3552Z" fill="#5FCF86"/>
<path d="M118.376 48.0657L115.599 36.4122L120.274 31.7969L121.198 40.9624L125.223 36.9885L124.251 57.2664L121.366 45.1144L118.376 48.0657Z" fill="white"/>
</svg>
