<svg width="136" height="137" viewBox="0 0 136 137" fill="none" xmlns="http://www.w3.org/2000/svg">
<path d="M110.785 130.358L21.5344 127.421C12.048 127.109 4.49387 121.386 4.67024 114.642L7.13979 12.2154C7.29808 5.46359 15.1177 0.261123 24.6047 0.567257L113.834 3.53012C123.313 3.84647 130.874 9.56994 130.698 16.3088L128.228 118.735C128.114 125.492 120.269 130.692 110.785 130.358Z" fill="#EFFAF3"/>
<path opacity="0.25" d="M113.52 25.7735L69.8495 13.5665C68.1403 13.0893 66.3688 14.0982 65.8957 15.8197L46.9161 84.7795C46.443 86.501 47.4452 88.2858 49.1543 88.763L102.256 103.614C103.965 104.092 105.737 103.083 106.21 101.361L122.577 41.9025L113.52 25.7735Z" fill="#3A7EC1"/>
<path d="M112.005 24.1536L68.3085 11.9273C66.5983 11.4494 64.8265 12.457 64.3541 14.1777L45.4013 83.1067C44.9289 84.8275 45.9324 86.6123 47.6426 87.0902L100.776 101.965C102.487 102.443 104.258 101.435 104.731 99.7146L121.075 40.2825L112.005 24.1536Z" fill="white"/>
<path d="M109.392 33.5911C108.919 35.3117 109.923 37.0965 111.633 37.5743L121.071 40.2132L112 24.0949L109.392 33.5911Z" fill="#EDEDED"/>
<path d="M111.148 37.4146L120.614 41.8224L121.056 40.2276L111.148 37.4146Z" fill="#CECECE"/>
<path d="M104.062 38.2715L77.3648 30.8129C76.646 30.6123 76.216 29.8521 76.4146 29.13C76.6133 28.4079 77.3691 27.9768 78.0879 28.1774L104.785 35.636C105.504 35.8366 105.934 36.5968 105.735 37.3189C105.535 38.0505 104.781 38.4721 104.062 38.2715Z" fill="#F26524"/>
<path d="M110.311 49.6628L66.189 37.3349C65.4702 37.1344 65.0402 36.3745 65.2389 35.6526C65.4375 34.9307 66.1933 34.4997 66.912 34.7002L111.033 47.0377C111.751 47.2382 112.181 47.9981 111.983 48.72C111.786 49.4323 111.03 49.8633 110.311 49.6628Z" fill="#E4ECF9"/>
<path d="M108.464 56.384L64.3414 44.0561C63.6226 43.8556 63.1926 43.0957 63.3912 42.3738C63.5898 41.6519 64.3456 41.2209 65.0644 41.4214L109.187 53.7494C109.905 53.9499 110.335 54.7098 110.137 55.4316C109.929 56.1519 109.182 56.5845 108.464 56.384Z" fill="#E4ECF9"/>
<path d="M106.604 63.0942L62.482 50.7663C61.7632 50.5658 61.3332 49.8059 61.5318 49.084C61.7305 48.3621 62.4862 47.9311 63.205 48.1316L107.327 60.4596C108.046 60.6601 108.476 61.42 108.277 62.1419C108.077 62.8733 107.323 63.2947 106.604 63.0942Z" fill="#E4ECF9"/>
<path d="M104.756 69.8157L60.6343 57.4877C59.9156 57.2872 59.4855 56.5273 59.6842 55.8054C59.8828 55.0836 60.6386 54.6525 61.3574 54.8531L105.48 67.181C106.198 67.3815 106.628 68.1414 106.43 68.8633C106.231 69.5852 105.475 70.0162 104.756 69.8157Z" fill="#E4ECF9"/>
<path d="M102.913 76.5276L58.7906 64.1996C58.0718 63.9991 57.6418 63.2392 57.8404 62.5173C58.039 61.7955 58.7948 61.3645 59.5136 61.565L103.636 73.8929C104.355 74.0934 104.785 74.8533 104.586 75.5752C104.376 76.305 103.632 76.7281 102.913 76.5276Z" fill="#E4ECF9"/>
<path d="M101.053 83.2471L56.9312 70.9191C56.2124 70.7186 55.7824 69.9587 55.981 69.2368C56.1797 68.515 56.9355 68.0839 57.6542 68.2845L101.776 80.6124C102.495 80.8129 102.925 81.5728 102.727 82.2947C102.526 83.0261 101.772 83.4476 101.053 83.2471Z" fill="#E4ECF9"/>
<path d="M84.7092 88.4381C84.7363 88.2164 84.5304 88.0436 84.3243 88.166C84.0531 88.3265 83.774 88.4758 83.476 88.5628C83.3333 88.5976 83.1922 88.6228 83.0496 88.6576C82.7594 88.7558 82.6264 88.6151 82.6585 88.2466C82.9328 88.067 82.6701 87.6484 82.3894 87.8073C82.0326 88.0123 81.5664 88.2872 81.1386 88.1554C81.0182 88.1152 80.8851 88.0335 80.7521 87.9519C80.8488 87.8994 80.9471 87.8375 81.0391 87.7547C81.1184 87.6895 81.1154 87.5906 81.0917 87.498C81.0523 87.265 80.9637 87.0925 80.9036 86.9248C82.1248 86.0502 83.2432 84.8531 83.8815 83.6039C84.0006 83.3585 83.7424 83.1473 83.5173 83.2664C82.4803 83.7984 81.5096 84.5189 80.7971 85.4505C80.5464 85.7817 80.3195 86.1465 80.3159 86.5789C80.319 86.6188 80.3206 86.6682 80.3332 86.7097C80.0366 86.9053 79.7433 87.0817 79.4452 87.2277C79.0297 87.4326 78.6033 87.5863 78.1436 87.6459C77.8139 87.6882 77.3225 87.762 77.1643 87.4203C77.9348 87.1381 78.5993 86.6706 78.4114 85.9203C78.1303 84.7902 76.7724 86.1925 76.5671 87.0727C76.1977 87.1771 75.8173 87.2305 75.4321 87.2535C75.1056 87.2767 75.1273 87.792 75.4539 87.7689C75.7217 87.7455 76.1513 87.6907 76.5999 87.5801C77.022 88.7441 79.0958 87.9751 79.8125 87.6051C80.0266 87.4939 80.2439 87.3636 80.4516 87.2317C80.5512 87.5143 80.5671 87.4776 80.1659 87.6554C79.9646 87.749 79.9215 88.0074 80.1259 88.1307C80.4886 88.3597 80.8544 88.6876 81.3014 88.7045C81.4377 88.7081 81.5771 88.6924 81.7103 88.656C81.7087 88.7246 81.7355 88.7981 81.7862 88.8461C82.4038 89.4234 83.3423 89.1895 84.0923 88.8546C83.8459 89.6294 83.2794 90.33 82.5976 90.7257C81.5145 91.3581 80.3214 90.9485 79.2361 90.5376C78.9319 90.4268 78.6906 90.8777 78.9948 90.9885C80.172 91.4347 81.449 91.8684 82.6541 91.2666C83.7054 90.7665 84.5813 89.6167 84.7092 88.4381ZM77.5426 86.2645C77.9834 86.0246 77.62 86.563 77.4645 86.6743C77.3646 86.7459 77.2473 86.8046 77.1315 86.8538C77.1681 86.6928 77.4236 86.3328 77.5426 86.2645ZM80.9519 86.1065C81.1123 85.7304 81.5279 85.3485 81.8198 85.0636C82.1466 84.7453 82.5066 84.4622 82.8904 84.2126C82.3524 84.9771 81.6464 85.6934 80.8947 86.2739C80.9121 86.2277 80.9217 86.1703 80.9519 86.1065Z" fill="#E4ECF9"/>
<path d="M93.0511 95.5427C90.4872 94.6736 89.0965 91.8686 89.958 89.2795C90.8179 86.7 93.6025 85.3041 96.1759 86.1748C98.7397 87.0439 100.13 89.8488 99.269 92.4379C98.4091 95.0174 95.6149 96.4118 93.0511 95.5427ZM95.831 87.1887C93.8217 86.5124 91.6365 87.597 90.9563 89.6265C90.2871 91.648 91.3677 93.8491 93.3849 94.5367C95.3941 95.2131 97.5793 94.1284 98.2596 92.0989C98.9399 90.0694 97.8482 87.8763 95.831 87.1887Z" fill="#E4ECF9"/>
<path d="M107.165 86.301L107.097 86.3057C106.389 86.2992 105.707 86.3457 105.036 86.4266L104.051 86.5679L103.09 86.7623C101.814 87.0329 100.576 87.3752 99.3909 87.8076C98.1807 88.187 97.0288 88.7227 95.8933 89.2611C95.2533 89.5587 94.6409 89.8935 94.0259 90.2441C93.759 89.9223 93.4921 89.6006 93.2062 89.2919C92.8239 88.8529 92.3871 88.4373 91.9529 88.0058C91.4998 87.5873 91.0439 87.1846 90.5146 86.8183L90.4707 86.7783C90.4405 86.7569 90.3913 86.7485 90.3532 86.7746C90.2987 86.7978 90.2692 86.8741 90.2941 86.9271C91.2706 88.9627 92.3043 90.9592 93.3353 92.9716C93.3851 93.0776 93.5301 93.1185 93.6391 93.072C95.9239 92.0137 98.1922 90.9527 100.452 89.8414L103.845 88.2074C104.98 87.669 106.088 87.0933 107.21 86.5363C107.248 86.5102 107.27 86.4814 107.278 86.434C107.274 86.3522 107.233 86.2964 107.165 86.301Z" fill="#52D1BD"/>
<path d="M16.4584 50.9618C16.5501 50.7852 16.6779 50.6299 16.8335 50.5059C16.989 50.3819 17.1689 50.292 17.3612 50.2421C21.5242 49.1661 28.3688 44.5391 31.5127 37.7548C31.7308 37.2828 32.4236 37.2592 32.9183 37.4112C39.8318 39.5466 49.2018 37.1578 52.4102 36.2085C52.7321 36.1138 53.0768 36.1368 53.3824 36.2735C53.688 36.4102 53.9344 36.6516 54.0774 36.9544C66.6897 63.5679 52.2154 80.0025 49.1042 83.1019C48.9364 83.2687 48.7296 83.3909 48.5028 83.4573C48.276 83.5237 48.0363 83.5322 47.8058 83.482C25.1059 78.5345 20.5872 63.1846 16.3917 52.1138C16.3212 51.9282 16.2907 51.7297 16.3022 51.5311C16.3137 51.3326 16.3669 51.1386 16.4584 50.9618Z" fill="#5CB3FF"/>
<path d="M47.8799 81.2344C47.8028 81.2619 47.7194 81.2667 47.6398 81.2483C38.9055 79.2379 32.3385 75.451 27.5672 69.6737C23.3042 64.5122 21.0649 58.5046 19.0896 53.2038C19.0013 52.9668 18.9134 52.7311 18.826 52.4968C18.8061 52.4441 18.797 52.388 18.7992 52.3317C18.8014 52.2753 18.815 52.22 18.8389 52.1689C18.863 52.1171 18.8972 52.0707 18.9395 52.0323C18.9818 51.9939 19.0314 51.9644 19.0852 51.9455L19.0891 51.9441C21.4321 51.1086 24.0152 49.5745 26.3629 47.6238C29.0507 45.3901 31.2773 42.7346 32.8021 39.9443C32.8475 39.8612 32.9191 39.7955 33.0056 39.7575C33.0922 39.7195 33.1889 39.7113 33.2804 39.7343C36.1156 40.4382 42.3257 41.2183 52.0613 38.5336C52.1589 38.5064 52.2629 38.515 52.3545 38.5578C52.446 38.6007 52.5192 38.6749 52.5606 38.7671C57.3071 49.2023 58.2777 59.111 55.4477 68.2165C53.3347 75.0164 49.5683 79.5092 48.0474 81.1254C48.001 81.1745 47.9436 81.2119 47.8799 81.2344ZM47.9682 81.0507L48.0077 81.0879L47.9682 81.0507C49.4836 79.4405 53.2354 74.9631 55.3418 68.1849C58.163 59.1057 57.1931 49.2236 52.4592 38.8128C52.4284 38.7441 52.374 38.6888 52.3059 38.6569C52.2377 38.6251 52.1604 38.6187 52.0877 38.6389C50.1138 39.1831 47.0474 39.9099 43.6484 40.2806C39.6729 40.7127 36.1743 40.5666 33.2518 39.8399C33.1836 39.8231 33.1118 39.8294 33.0474 39.8577C32.983 39.8861 32.9298 39.935 32.896 39.9967C31.3647 42.7989 29.129 45.4654 26.4309 47.7079C24.0746 49.6657 21.4805 51.2077 19.1245 52.0478L19.1206 52.0492C19.0804 52.0633 19.0434 52.0854 19.0119 52.114C18.9803 52.1427 18.9548 52.1774 18.9368 52.216C18.9189 52.254 18.9089 52.2952 18.9072 52.3371C18.9055 52.379 18.9122 52.4208 18.927 52.46C19.0144 52.6943 19.1023 52.9299 19.1906 53.167C21.1631 58.4597 23.3988 64.4584 27.6504 69.6054C32.4069 75.364 38.9535 79.138 47.6641 81.1438C47.7181 81.156 47.7745 81.1539 47.8276 81.1377C47.8807 81.1215 47.9287 81.0917 47.9668 81.0512L47.9682 81.0507Z" fill="white"/>
<path d="M27.9702 109.405H25.4208C22.2738 109.405 19.7227 111.959 19.7227 115.111V130.403C19.7227 133.554 22.2738 136.109 25.4208 136.109H27.9702C31.1172 136.109 33.6684 133.554 33.6684 130.403V115.111C33.6684 111.959 31.1172 109.405 27.9702 109.405Z" fill="#2A3A5D"/>
<path d="M106.505 109.405H103.956C100.809 109.405 98.2578 111.959 98.2578 115.111V130.403C98.2578 133.554 100.809 136.109 103.956 136.109H106.505C109.652 136.109 112.204 133.554 112.204 130.403V115.111C112.204 111.959 109.652 109.405 106.505 109.405Z" fill="#2A3A5D"/>
<path d="M27.4527 86.7372C27.2814 86.698 27.0612 86.5461 27.0612 86.3721V85.1986C27.0809 84.6531 26.9464 84.1131 26.6733 83.6407C26.4002 83.1683 25.9996 82.7827 25.5174 82.5281C24.8846 82.2046 24.1862 82.0306 23.4758 82.0196C22.7653 82.0086 22.0618 82.1607 21.4193 82.4644L19.0828 83.6012C18.5266 83.8703 18.06 84.2947 17.7392 84.8233C17.4184 85.3519 17.2571 85.9621 17.2747 86.5804V87.4746C17.261 88.2641 17.536 89.0314 18.0479 89.632C18.5598 90.2326 19.2733 90.6251 20.0541 90.7355L29.9997 92.0953L31.1691 87.5457L27.4527 86.7372Z" fill="#5FCF86"/>
<path d="M105.181 86.7374C105.352 86.6982 105.352 86.5463 105.352 86.3724V85.1988C105.352 84.0694 106.108 83.0355 107.116 82.5284C107.769 82.2049 108.485 82.0314 109.213 82.0203C109.941 82.0093 110.663 82.1611 111.324 82.4647L113.864 83.6014C115.019 84.1404 115.873 85.3165 115.873 86.5806V87.4749C115.854 88.2804 115.548 89.0527 115.009 89.6511C114.471 90.2496 113.735 90.6344 112.937 90.7358L102.918 92.0955L101.602 87.5459L105.181 86.7374Z" fill="#5FCF86"/>
<path d="M112.594 96.7969C111.148 91.9141 103.686 87.3155 103.686 87.3155C103.686 87.3155 97.425 68 90.6943 68H42.0825C35.342 68 29.0811 87.3155 29.0811 87.3155C29.0811 87.3155 21.6189 91.8725 20.1729 96.7552C19.1184 100.325 21.3962 114.194 22.715 121.279C23.1749 123.776 25.5286 125.819 28.2786 125.819H104.488C107.236 125.819 109.59 123.798 110.052 121.299C111.359 114.216 113.648 100.366 112.594 96.7969Z" fill="#5FCF86"/>
<path d="M111.651 117.435C111.428 117.204 111.157 117.023 110.857 116.905C110.557 116.788 110.236 116.736 109.914 116.754H22.8464C22.5268 116.737 22.2071 116.788 21.9088 116.904C21.6104 117.02 21.3403 117.199 21.1166 117.428C20.9121 117.645 20.7656 117.911 20.6904 118.2C20.6151 118.489 20.6136 118.792 20.6861 119.082L22.1125 124.873C22.2429 125.35 22.5239 125.771 22.9133 126.074C23.3028 126.377 23.7796 126.545 24.2727 126.554H108.417C108.908 126.54 109.382 126.37 109.77 126.068C110.157 125.765 110.439 125.347 110.572 124.873L112.067 119.172C112.145 118.871 112.147 118.555 112.074 118.252C112.002 117.949 111.857 117.669 111.651 117.435Z" fill="#5FCF86"/>
<path d="M42.867 108.51C42.867 108.51 40.7017 102.001 37.9737 101.437C35.2457 100.874 23.6903 98.4653 23.4481 100.474C23.2059 102.483 20.8817 109.395 27.7836 110.029C34.6855 110.664 43.9802 111.208 42.867 108.51Z" fill="white"/>
<path d="M89.896 108.51C89.896 108.51 92.0613 102.001 94.7893 101.437C97.5173 100.874 109.073 98.4653 109.312 100.474C109.552 102.483 111.881 109.395 104.979 110.029C98.0775 110.664 88.7828 111.208 89.896 108.51Z" fill="white"/>
<path d="M88.3432 102.905C88.2351 102.728 88.0856 102.581 87.9079 102.476C87.7301 102.37 87.5294 102.31 87.323 102.3H45.4441C45.2308 102.311 45.0239 102.376 44.842 102.487C44.66 102.599 44.5087 102.755 44.402 102.94C44.2953 103.125 44.2365 103.334 44.2309 103.548C44.2253 103.762 44.2732 103.973 44.3701 104.164L46.7261 108.647C47.1534 109.462 47.7935 110.145 48.5782 110.623C49.3629 111.102 50.2627 111.358 51.1814 111.364H81.9501C82.9261 111.361 83.8803 111.074 84.6974 110.539C85.5144 110.005 86.1595 109.245 86.5547 108.351L88.4336 104.1C88.5154 103.908 88.55 103.699 88.5342 103.491C88.5184 103.283 88.4529 103.082 88.3432 102.905Z" fill="#182038"/>
<path d="M99.744 88.9274C99.6084 89.126 99.4256 89.2877 99.2121 89.398C98.9986 89.5084 98.761 89.5638 98.5207 89.5595H34.248C34.0025 89.5663 33.7594 89.5097 33.5421 89.3952C33.3247 89.2806 33.1404 89.1121 33.007 88.9056C32.8735 88.6991 32.7955 88.4617 32.7801 88.2162C32.7648 87.9708 32.8128 87.7255 32.9195 87.504C34.3875 84.4244 37.1155 78.7332 38.6495 75.5458C38.7217 75.389 38.8034 75.2368 38.8942 75.09C39.2605 74.5008 39.7693 74.0136 40.3736 73.6735C40.9779 73.3335 41.6581 73.1516 42.3512 73.1448H90.9362C91.6348 73.153 92.3199 73.3385 92.9274 73.6838C93.535 74.0291 94.0453 74.5231 94.4105 75.1195C94.5152 75.2958 94.6076 75.4791 94.6869 75.6682L99.8591 87.5359C99.9566 87.7592 99.9972 88.0033 99.9771 88.2462C99.957 88.4891 99.8769 88.7232 99.744 88.9274Z" fill="#253454"/>
<path d="M41.8328 99.6559C41.771 99.6557 41.7115 99.632 41.6664 99.5897L33.3479 91.6959C33.3141 91.6497 33.2977 91.5931 33.3013 91.536C33.3049 91.4789 33.3283 91.4249 33.3676 91.3832C33.4068 91.3416 33.4593 91.315 33.5161 91.3082C33.5728 91.3013 33.6302 91.3146 33.6782 91.3456L42.0089 99.2394C42.0421 99.2733 42.0649 99.3162 42.0742 99.3628C42.0835 99.4095 42.0792 99.4579 42.0616 99.502C42.0439 99.5462 42.0138 99.5842 41.9749 99.6115C41.9361 99.6389 41.89 99.6543 41.8426 99.6559H41.8328Z" fill="white"/>
<path d="M90.3167 99.6559C90.2842 99.6554 90.2521 99.6484 90.2222 99.6354C90.1924 99.6224 90.1654 99.6035 90.1429 99.5799C90.0988 99.5342 90.0742 99.4732 90.0742 99.4097C90.0742 99.3461 90.0988 99.2851 90.1429 99.2394L98.4614 91.3456C98.5094 91.3146 98.5669 91.3013 98.6237 91.3082C98.6804 91.315 98.7329 91.3416 98.7721 91.3832C98.8114 91.4249 98.8349 91.4789 98.8384 91.536C98.842 91.5931 98.8255 91.6497 98.7917 91.6959L90.4732 99.5897C90.4306 99.6298 90.3751 99.6533 90.3167 99.6559Z" fill="white"/>
<path d="M46.4416 45.2685L40.5783 61.3105L32.1296 58.1273L31.4752 59.9438L41.7172 63.8005L48.2368 45.958L46.4416 45.2685Z" fill="white"/>
</svg>
