<svg width="136" height="136" viewBox="0 0 136 136" fill="none" xmlns="http://www.w3.org/2000/svg">
<g clip-path="url(#clip0_67_10134)">
<path d="M93.048 0.616684L13.3086 21.4467C3.83994 23.9202 -1.8308 33.6012 0.642669 43.0699L21.4727 122.809C23.9461 132.278 33.6272 137.949 43.0958 135.475L122.835 114.645C132.304 112.172 137.975 102.491 135.501 93.022L114.671 13.2826C112.198 3.81396 102.517 -1.85678 93.048 0.616684Z" fill="#EFFAF3"/>
<path d="M101.181 17.8438L53.532 9.99396C52.7346 9.85703 51.9181 9.8793 51.1294 10.0594C50.3407 10.2395 49.5954 10.5738 48.9365 11.0433C48.2776 11.5127 47.7182 12.1079 47.2904 12.7946C46.8626 13.4812 46.575 14.2457 46.444 15.0441L32.9238 97.4592L30.0709 114.807C29.8044 116.419 30.1885 118.07 31.1386 119.399C32.0888 120.728 33.5275 121.626 35.1388 121.895L82.7875 129.709C83.5861 129.846 84.4039 129.823 85.1936 129.642C85.9833 129.461 86.7293 129.125 87.3884 128.654C88.0475 128.182 88.6066 127.585 89.0335 126.897C89.4604 126.208 89.7465 125.441 89.8754 124.642L92.7284 107.311L106.231 24.8963C106.363 24.1016 106.337 23.2888 106.154 22.5042C105.972 21.7196 105.636 20.9786 105.167 20.3236C104.698 19.6686 104.105 19.1125 103.421 18.687C102.737 18.2615 101.976 17.975 101.181 17.8438Z" fill="#5FCF86"/>
<path d="M32.7837 97.4771L29.9485 114.807C29.8142 115.605 29.8388 116.422 30.021 117.211C30.2032 118 30.5395 118.745 31.0103 119.404C31.4812 120.062 32.0775 120.621 32.7649 121.049C33.4524 121.476 34.2175 121.764 35.0164 121.895L82.6475 129.727C84.2592 129.994 85.9109 129.61 87.2398 128.659C88.5687 127.709 89.4662 126.271 89.7354 124.659L92.5705 107.329L32.7837 97.4771Z" fill="#5FCF86"/>
<path d="M81.0325 111.777L42.2614 105.398C41.8378 105.327 41.4043 105.34 40.9859 105.437C40.5675 105.535 40.1724 105.713 39.8233 105.964C39.4742 106.214 39.1781 106.531 38.9518 106.896C38.7255 107.261 38.5736 107.667 38.5048 108.091L37.8846 111.865C37.8137 112.289 37.8272 112.723 37.9243 113.141C38.0214 113.559 38.2003 113.954 38.4506 114.304C38.7008 114.653 39.0176 114.949 39.3827 115.175C39.7478 115.401 40.154 115.553 40.578 115.622L79.3491 122.001C80.204 122.14 81.079 121.934 81.7829 121.429C82.4868 120.925 82.9623 120.162 83.1057 119.308L83.7259 115.516C83.7967 115.093 83.783 114.661 83.6856 114.243C83.5883 113.826 83.4093 113.432 83.1588 113.085C82.9084 112.737 82.5915 112.442 82.2266 112.218C81.8616 111.993 81.4557 111.844 81.0325 111.777Z" fill="white"/>
<path d="M76.7617 42.7757L79.0298 28.9365L80.1462 29.1137L77.754 43.6617L56.2243 51.7242L51.0679 83.0884L60.4948 84.6301L60.2999 85.7464L49.668 83.9744L55.1257 50.8383L76.7617 42.7757Z" fill="white" stroke="white" stroke-miterlimit="10"/>
<path d="M80.0598 25.942C80.7035 26.0504 81.2778 26.4099 81.6565 26.9415C82.0353 27.4731 82.1876 28.1333 82.0799 28.7771C81.9754 29.4204 81.6202 29.9962 81.0921 30.3781C80.5641 30.7601 79.9061 30.9172 79.2625 30.815C78.9422 30.7633 78.6352 30.6489 78.3593 30.4783C78.0833 30.3077 77.8437 30.0843 77.6544 29.8208C77.465 29.5574 77.3296 29.2591 77.2559 28.9431C77.1821 28.6272 77.1715 28.2999 77.2247 27.9798C77.2763 27.6595 77.3907 27.3525 77.5613 27.0765C77.7319 26.8006 77.9553 26.561 78.2188 26.3717C78.4822 26.1823 78.7805 26.0469 79.0964 25.9731C79.4124 25.8994 79.7398 25.8888 80.0598 25.942Z" fill="#F26524"/>
<path d="M58.9727 84.3111L62.2508 84.8604C62.208 84.4837 62.0455 84.1307 61.7871 83.8532C61.5288 83.5757 61.1882 83.3884 60.8155 83.3188C60.4428 83.2671 60.0633 83.3354 59.7319 83.5138C59.4006 83.6922 59.1347 83.9715 58.9727 84.3111Z" fill="white"/>
<path d="M58.8292 84.7363C58.7757 84.9755 58.7757 85.2236 58.8292 85.4629C58.9092 85.781 59.0813 86.0684 59.3241 86.2891C59.5668 86.5097 59.8693 86.6538 60.1936 86.7032C60.5292 86.7627 60.8749 86.7242 61.1892 86.5922C61.5035 86.4602 61.7731 86.2403 61.9656 85.959C62.1133 85.7608 62.2106 85.5297 62.2491 85.2856C62.2662 85.1444 62.2662 85.0016 62.2491 84.8603L58.9709 84.311C58.9154 84.4499 58.8681 84.5919 58.8292 84.7363Z" fill="white"/>
<path d="M60.7252 83.9212C60.868 83.9426 61.005 83.9926 61.1283 84.0679C61.2515 84.1431 61.3584 84.2423 61.4426 84.3595C61.5268 84.4768 61.5867 84.6098 61.6187 84.7506C61.6507 84.8914 61.6542 85.0372 61.6289 85.1793C61.5811 85.4656 61.422 85.7213 61.1862 85.8907C60.9505 86.06 60.6574 86.1292 60.3708 86.0831C60.0845 86.0353 59.8288 85.8761 59.6595 85.6404C59.4902 85.4047 59.421 85.1115 59.4671 84.8249C59.4885 84.6821 59.5383 84.5452 59.6136 84.4219C59.6889 84.2987 59.7881 84.1918 59.9054 84.1075C60.0227 84.0233 60.1556 83.9635 60.2964 83.9315C60.4372 83.8995 60.5831 83.8959 60.7252 83.9212Z" fill="#5A9F86"/>
<path d="M62.036 74.2463H62.3018H62.5499C63.2227 74.4134 63.8397 74.7545 64.339 75.2355C64.8383 75.7164 65.2023 76.3203 65.3944 76.9864C65.5865 77.6525 65.6 78.3574 65.4335 79.0304C65.267 79.7034 64.9264 80.3206 64.4459 80.8203L60.5298 84.9137L58.1376 79.7927C57.8602 79.1687 57.7493 78.4836 57.8155 77.804C57.8818 77.1245 58.1229 76.4736 58.5155 75.915C58.9082 75.3564 59.4388 74.9091 60.0558 74.6166C60.6728 74.3242 61.355 74.1966 62.036 74.2463Z" fill="#F26524"/>
<path d="M101.181 16.7452L53.5325 8.9131C51.639 8.60599 49.701 9.06205 48.1432 10.1814C46.5854 11.3008 45.5349 12.9921 45.2219 14.8847L28.8487 114.648C28.5465 116.54 29.0045 118.476 30.123 120.033C31.2415 121.589 32.9299 122.641 34.8203 122.958L82.4691 130.79H82.8944C84.6829 130.974 86.4759 130.488 87.9268 129.426C89.4536 128.308 90.4787 126.634 90.7797 124.766L107.153 25.0027C107.449 23.1167 106.988 21.19 105.869 19.643C104.75 18.096 103.065 17.0543 101.181 16.7452ZM31.0283 114.984L47.3837 15.2214C47.6096 13.9021 48.3465 12.725 49.4345 11.9455C50.5226 11.166 51.8741 10.8467 53.1959 11.0571L100.791 18.8539C101.447 18.9614 102.075 19.1972 102.639 19.5476C103.203 19.8981 103.692 20.3563 104.079 20.8962C104.466 21.4361 104.742 22.0469 104.893 22.6938C105.043 23.3407 105.065 24.011 104.956 24.6661L88.5824 124.429C88.477 125.084 88.2433 125.711 87.8946 126.275C87.546 126.839 87.0893 127.329 86.5509 127.715C86.0124 128.102 85.4028 128.379 84.757 128.53C84.1113 128.68 83.4421 128.702 82.788 128.593L35.2279 120.796C34.5683 120.695 33.9355 120.464 33.3661 120.116C32.7967 119.768 32.3023 119.31 31.9115 118.769C31.5207 118.229 31.2413 117.615 31.0897 116.965C30.9381 116.316 30.9172 115.642 31.0283 114.984Z" fill="black"/>
<path d="M95.6857 23.532L89.9268 57.7136L89.1117 62.5511L89.8382 62.1436L57.1096 56.6327C56.3654 56.5087 56.0287 57.6427 56.7906 57.7844L89.5192 63.2954C89.674 63.3296 89.8359 63.305 89.9734 63.2264C90.111 63.1478 90.2144 63.0208 90.2635 62.8701L96.0047 28.7062L96.8198 23.8509C96.9616 23.1067 95.8098 22.7878 95.6857 23.532Z" fill="#2E2837"/>
<path d="M42.1746 55.5519L51.0346 57.0226L52.3104 57.253C53.0546 57.377 53.3736 56.2253 52.6293 56.1012L43.7694 54.6127L42.4936 54.4001C41.7316 54.276 41.4127 55.4102 42.1746 55.5519Z" fill="#2E2837"/>
<path d="M39.4627 71.5884L48.3226 73.0768L49.5984 73.2894C50.3426 73.4135 50.6793 72.2795 49.9174 72.1377L41.0574 70.6492L39.7816 70.4366C39.0374 70.3125 38.7184 71.4644 39.4627 71.5884Z" fill="#2E2837"/>
<path d="M60.0343 30.4958L68.3803 42.2086L69.5676 43.9806C70.0106 44.6008 71.056 43.9807 70.5953 43.3782L62.2493 31.6653L61.062 29.982C60.619 29.3618 59.5913 29.9819 60.0343 30.5844V30.4958Z" fill="#2E2837"/>
<path d="M49.6675 85.3389L48.179 94.1989L47.9664 95.4746C47.8423 96.2366 48.9941 96.5555 49.1181 95.7936L50.6066 86.9337L50.8192 85.6579C50.9433 84.9136 49.7915 84.5947 49.6675 85.3567V85.3389Z" fill="#2E2837"/>
<path d="M54.5937 71.163L70.2758 73.8032L72.544 74.193L72.1364 73.4488L71.0023 80.1646L70.7011 81.9366C70.5849 82.2979 70.5193 82.6736 70.5062 83.053C70.5062 83.301 70.5062 83.0529 70.6125 82.9289C70.7188 82.8049 70.3644 83.1416 70.2935 83.1948L68.8582 84.382L66.0053 86.7565C65.4206 87.2349 66.2711 88.0854 66.8559 87.5892L69.3012 85.5693L70.8783 84.2579C71.1441 84.0275 71.4985 83.8326 71.6225 83.496C71.8384 82.7263 71.975 81.9367 72.0301 81.1393L72.7921 76.6206L73.2705 73.7147C73.3092 73.5644 73.2884 73.405 73.2125 73.2696C73.1366 73.1343 73.0113 73.0334 72.8629 72.9881L57.1631 70.3478L54.895 69.9581C54.1507 69.834 53.8318 70.9857 54.5937 71.1098V71.163Z" fill="#2E2837"/>
<path d="M71.1622 47.5601L69.3902 57.7313L69.1421 59.202C69.0181 59.9463 70.1699 60.2652 70.2939 59.521L72.0659 49.3498L72.314 47.879C72.438 47.1348 71.304 46.8158 71.1799 47.5601H71.1622Z" fill="#2E2837"/>
<path d="M81.1228 39.1432L97.9035 41.9606L100.313 42.3683C101.075 42.4923 101.394 41.3405 100.632 41.2164L83.8694 38.399L81.4418 37.9914C80.6975 37.8674 80.3786 39.0015 81.1228 39.1432Z" fill="#2E2837"/>
<path d="M72.2254 76.231L84.9128 78.3574L86.6848 78.6763C87.4468 78.8004 87.7657 77.6485 87.0038 77.5245L74.3163 75.3981L72.5443 75.0792C71.7824 74.9551 71.4634 76.1069 72.2254 76.231Z" fill="#2E2837"/>
<path d="M52.948 19.3147C53.7409 18.0167 55.0151 17.0851 56.4925 16.7233C57.9698 16.3614 59.5303 16.5986 60.8334 17.3832C62.135 18.1729 63.0697 19.4473 63.4319 20.926C63.7941 22.4047 63.5542 23.9667 62.7648 25.2686C61.9752 26.5702 60.7008 27.505 59.2221 27.8672C57.7434 28.2294 56.1813 27.9894 54.8795 27.2001C54.2332 26.8107 53.6702 26.2974 53.223 25.6897C52.7758 25.082 52.4532 24.392 52.2737 23.6591C52.0942 22.9263 52.0614 22.1652 52.1771 21.4196C52.2928 20.674 52.5548 19.9587 52.948 19.3147Z" fill="#EAF8F3"/>
<path d="M56.6331 21.6004L57.147 17.7197L61.4352 24.5242L53.4258 23.8686L56.6331 21.6004Z" fill="#5CB3FF"/>
</g>
<defs>
<clipPath id="clip0_67_10134">
<rect width="136" height="136" fill="white"/>
</clipPath>
</defs>
</svg>
