<svg width="136" height="136" viewBox="0 0 136 136" fill="none" xmlns="http://www.w3.org/2000/svg">
<g clip-path="url(#clip0_67_10049)">
<path d="M114.019 2.52018L23.1956 0.0266145C12.4108 -0.269485 3.43445 8.47727 3.14639 19.563L0.720511 112.921C0.43245 124.006 8.94176 133.233 19.7266 133.529L110.55 136.023C121.335 136.319 130.311 127.572 130.599 116.486L133.025 23.1289C133.313 12.0431 124.804 2.81628 114.019 2.52018Z" fill="#EFFAF3"/>
<path d="M101.193 12.8834L11.5295 36.9594C8.39797 37.8003 6.52252 41.0914 7.34056 44.3103L24.9765 113.706C25.7946 116.925 28.9963 118.853 32.1278 118.012L121.791 93.9362C124.923 93.0954 126.798 89.8043 125.98 86.5854L108.344 17.1892C107.526 13.9703 104.324 12.0425 101.193 12.8834Z" fill="white"/>
<path d="M121.78 93.9129L32.0381 118.009C30.5411 118.4 28.9543 118.168 27.6228 117.364C26.2912 116.559 25.3226 115.247 24.9275 113.712L7.3463 44.2558C6.96471 42.7198 7.18752 41.0911 7.96642 39.7229C8.74532 38.3547 10.0175 37.3572 11.5072 36.9467L101.23 12.8511C102.727 12.4595 104.313 12.6914 105.645 13.4961C106.977 14.3008 107.945 15.6132 108.34 17.1482L125.921 86.604C126.304 88.1372 126.084 89.7635 125.309 91.1312C124.534 92.499 123.266 93.4982 121.78 93.9129Z" fill="white" stroke="#B0B3B7" stroke-width="0.75" stroke-miterlimit="10"/>
<path d="M47.9071 65.8067L19.1328 73.4297L21.7854 84.009L50.5597 76.386L47.9071 65.8067Z" fill="#5FCF86"/>
<path d="M90.2773 43.4128L75.668 47.2832L78.2612 57.6257L92.8705 53.7553L90.2773 43.4128Z" fill="#5FCF86"/>
<path d="M82.9167 64.922L67.6641 69.0176L70.3549 79.6056L85.6074 75.5101L82.9167 64.922Z" fill="#5CB3FF"/>
<path d="M41.1989 100.376L31.125 103.081L32.9024 110.075L42.9763 107.37L41.1989 100.376Z" fill="#F26524"/>
<path d="M99.9126 83.9321L84.6211 87.9832L87.2827 98.5982L102.574 94.5471L99.9126 83.9321Z" fill="#5CB3FF"/>
<path d="M39.9106 102.507L32.4289 104.515C32.4058 104.521 32.3817 104.522 32.3582 104.518C32.3347 104.514 32.3122 104.505 32.2921 104.492C32.272 104.479 32.2547 104.462 32.2413 104.441C32.2279 104.421 32.2186 104.398 32.214 104.374C32.205 104.349 32.2015 104.323 32.2038 104.296C32.2061 104.269 32.214 104.244 32.2271 104.221C32.2401 104.198 32.258 104.178 32.2794 104.163C32.3008 104.148 32.3251 104.138 32.3507 104.133L39.813 102.125C39.8621 102.113 39.9141 102.121 39.9578 102.147C40.0015 102.173 40.0337 102.216 40.0474 102.266C40.0564 102.291 40.0598 102.318 40.0576 102.344C40.0553 102.371 40.0474 102.396 40.0343 102.42C40.0212 102.443 40.0034 102.462 39.982 102.477C39.9606 102.493 39.9362 102.503 39.9106 102.507Z" fill="white"/>
<path d="M40.2988 104.033L32.8171 106.041C32.794 106.047 32.7699 106.048 32.7464 106.044C32.7229 106.04 32.7004 106.031 32.6803 106.018C32.6602 106.005 32.643 105.988 32.6295 105.967C32.6161 105.947 32.6068 105.924 32.6022 105.9C32.5931 105.877 32.5889 105.851 32.59 105.826C32.5911 105.801 32.5973 105.776 32.6084 105.753C32.6195 105.73 32.6351 105.71 32.6542 105.694C32.6733 105.678 32.6956 105.666 32.7194 105.659L40.2012 103.652C40.2503 103.639 40.3023 103.647 40.346 103.673C40.3897 103.699 40.4219 103.742 40.4356 103.792C40.4476 103.843 40.4401 103.896 40.4146 103.941C40.3891 103.986 40.3476 104.019 40.2988 104.033Z" fill="white"/>
<path d="M40.6914 105.639L33.2097 107.647C33.1608 107.655 33.1109 107.646 33.0682 107.62C33.0255 107.594 32.9926 107.554 32.9752 107.507C32.9676 107.457 32.977 107.405 33.0019 107.361C33.0268 107.318 33.0657 107.284 33.112 107.266L40.5938 105.258C40.6429 105.246 40.6948 105.253 40.7386 105.28C40.7823 105.306 40.8144 105.348 40.8282 105.399C40.8402 105.449 40.8327 105.502 40.8072 105.547C40.7816 105.592 40.7401 105.625 40.6914 105.639Z" fill="white"/>
<path d="M68.097 82.1774L58.3633 84.791L60.1012 91.6296L69.8349 89.016L68.097 82.1774Z" fill="#5FCF86"/>
<path d="M62.94 61.768L47.6484 65.8191L50.31 76.4343L65.6016 72.3832L62.94 61.768Z" fill="#5FCF86"/>
<path d="M103.014 27.3207L16.8281 50.4629L19.1338 59.5356L105.32 36.3934L103.014 27.3207Z" fill="#5FCF86"/>
<path d="M118.654 89.0938L32.4677 112.226C32.4202 112.241 32.3701 112.245 32.3208 112.239C32.2715 112.233 32.224 112.216 32.1816 112.189C32.1391 112.162 32.1026 112.127 32.0745 112.085C32.0464 112.043 32.0273 111.995 32.0184 111.945L16.3907 50.5608C16.3761 50.5107 16.3716 50.458 16.3776 50.4061C16.3836 50.3541 16.3999 50.3039 16.4256 50.2587C16.4512 50.2135 16.4856 50.1742 16.5267 50.1433C16.5677 50.1123 16.6146 50.0905 16.6642 50.0789L102.851 26.9471C102.898 26.9321 102.948 26.9276 102.998 26.934C103.047 26.9403 103.095 26.9573 103.137 26.9838C103.179 27.0104 103.216 27.0459 103.244 27.088C103.272 27.1301 103.291 27.1779 103.3 27.2282L118.928 88.612C118.952 88.713 118.937 88.8197 118.886 88.9096C118.835 88.9995 118.752 89.0656 118.654 89.0938ZM32.7021 111.382L118.166 88.4312L102.753 27.7904L17.2893 50.7215L32.7021 111.382Z" fill="#5FCF86"/>
<path d="M60.142 38.8359L44.8516 42.9417L47.0783 51.7036L62.3687 47.5979L60.142 38.8359Z" fill="#5FCF86"/>
<path d="M45.2803 108.812C45.2316 108.827 45.1803 108.832 45.1298 108.826C45.0792 108.819 45.0305 108.803 44.9865 108.776C44.9425 108.75 44.9043 108.714 44.8742 108.672C44.8441 108.63 44.8227 108.582 44.8115 108.531L29.1838 47.1271C29.1596 47.0313 29.1725 46.9296 29.2199 46.8434C29.2673 46.7572 29.3454 46.6934 29.4378 46.6653C29.4865 46.6502 29.5378 46.6457 29.5883 46.6518C29.6389 46.658 29.6876 46.6747 29.7316 46.7011C29.7756 46.7275 29.8138 46.7628 29.8439 46.805C29.874 46.8472 29.8954 46.8954 29.9066 46.9465L45.5343 108.33C45.5548 108.428 45.5404 108.531 45.4939 108.619C45.4473 108.708 45.3716 108.776 45.2803 108.812Z" fill="#5FCF86"/>
<path d="M60.4997 104.696C60.4523 104.711 60.4023 104.716 60.3528 104.712C60.3033 104.707 60.2553 104.692 60.2115 104.667C60.1678 104.643 60.1293 104.61 60.0982 104.57C60.0672 104.53 60.0443 104.484 60.0309 104.435L44.4032 43.0309C44.3783 42.9324 44.3907 42.8279 44.4378 42.7385C44.4849 42.649 44.5633 42.5813 44.6571 42.549C44.7552 42.5291 44.8569 42.5466 44.9433 42.5984C45.0296 42.6502 45.0946 42.7325 45.126 42.83L60.7537 104.234C60.7779 104.33 60.765 104.431 60.7176 104.518C60.6702 104.604 60.5921 104.668 60.4997 104.696Z" fill="#5FCF86"/>
<path d="M75.796 100.599C75.7472 100.615 75.696 100.619 75.6454 100.613C75.5949 100.607 75.5461 100.59 75.5021 100.564C75.4581 100.537 75.4199 100.502 75.3898 100.46C75.3597 100.418 75.3384 100.369 75.3271 100.318L59.6994 38.9146C59.6752 38.8188 59.6882 38.717 59.7355 38.6309C59.7829 38.5447 59.861 38.4807 59.9534 38.4527C60.0021 38.4376 60.0534 38.433 60.1039 38.4392C60.1545 38.4453 60.2033 38.4622 60.2472 38.4886C60.2912 38.5149 60.3294 38.5503 60.3595 38.5925C60.3896 38.6347 60.411 38.6828 60.4222 38.7338L76.0499 100.118C76.0704 100.216 76.056 100.318 76.0095 100.407C75.9629 100.495 75.8872 100.563 75.796 100.599Z" fill="#5FCF86"/>
<path d="M91.0896 96.5032C90.9915 96.5231 90.8898 96.5055 90.8035 96.4537C90.7171 96.4019 90.6522 96.3196 90.6208 96.2221L74.9931 34.8182C74.9681 34.7198 74.9805 34.6153 75.0276 34.5258C75.0748 34.4364 75.1532 34.3687 75.247 34.3363C75.3451 34.3165 75.4468 34.3341 75.5331 34.3859C75.6194 34.4376 75.6844 34.52 75.7158 34.6175L91.3435 96.0213C91.364 96.1196 91.3497 96.2221 91.3031 96.3104C91.2566 96.3988 91.1808 96.4672 91.0896 96.5032Z" fill="#5FCF86"/>
<path d="M106.386 92.3868C106.337 92.4019 106.286 92.4064 106.235 92.4003C106.185 92.3941 106.136 92.3773 106.092 92.3509C106.048 92.3245 106.01 92.2892 105.98 92.247C105.95 92.2048 105.928 92.1567 105.917 92.1057L90.2893 30.7018C90.2651 30.606 90.278 30.5043 90.3254 30.4181C90.3728 30.3319 90.4509 30.2681 90.5432 30.24C90.592 30.225 90.6432 30.2204 90.6938 30.2265C90.7443 30.2327 90.7931 30.2494 90.8371 30.2758C90.8811 30.3022 90.9193 30.3375 90.9494 30.3797C90.9795 30.4219 91.0008 30.4701 91.0121 30.5212L106.64 91.9048C106.66 92.003 106.646 92.1057 106.599 92.194C106.553 92.2824 106.477 92.3507 106.386 92.3868Z" fill="#5FCF86"/>
<path d="M116.092 78.9937L29.9057 102.126C29.8569 102.141 29.8057 102.145 29.7551 102.139C29.7046 102.133 29.6558 102.116 29.6118 102.09C29.5678 102.063 29.5296 102.028 29.4995 101.986C29.4694 101.944 29.4481 101.895 29.4368 101.844C29.4183 101.746 29.4361 101.645 29.4867 101.559C29.5372 101.474 29.617 101.411 29.7103 101.383L115.897 78.2507C115.993 78.2251 116.095 78.2378 116.182 78.2863C116.269 78.3347 116.334 78.4153 116.366 78.5118C116.385 78.6126 116.368 78.7172 116.318 78.8059C116.267 78.8947 116.187 78.9614 116.092 78.9937Z" fill="#5FCF86"/>
<path d="M113.399 68.4116L27.2125 91.5836C27.1664 91.5988 27.1177 91.604 27.0694 91.5989C27.0212 91.5938 26.9746 91.5784 26.9324 91.5539C26.8902 91.5294 26.8534 91.4963 26.8243 91.4565C26.7952 91.4167 26.7744 91.371 26.7632 91.3225C26.7483 91.2738 26.743 91.2224 26.7478 91.1716C26.7525 91.1207 26.7672 91.0713 26.7909 91.0263C26.8146 90.9814 26.8468 90.9418 26.8857 90.9099C26.9246 90.878 26.9693 90.8544 27.0172 90.8407L113.204 67.7088C113.253 67.6937 113.304 67.6891 113.354 67.6953C113.405 67.7014 113.454 67.7183 113.498 67.7447C113.542 67.771 113.58 67.8064 113.61 67.8486C113.64 67.8908 113.661 67.9389 113.673 67.9899C113.685 68.0824 113.664 68.1764 113.614 68.2541C113.564 68.3319 113.487 68.3879 113.399 68.4116Z" fill="#5FCF86"/>
<path d="M110.721 57.8297L24.5347 80.9815C24.4367 81.0014 24.3349 80.9839 24.2486 80.9321C24.1623 80.8804 24.0973 80.798 24.0659 80.7005C24.0418 80.5994 24.0569 80.4926 24.1079 80.4027C24.1589 80.3128 24.2419 80.2468 24.3394 80.2186L110.526 57.0867C110.574 57.0717 110.624 57.0673 110.673 57.0736C110.722 57.0799 110.77 57.0969 110.812 57.1235C110.855 57.15 110.891 57.1855 110.919 57.2277C110.947 57.2698 110.967 57.3176 110.975 57.3679C110.99 57.4153 110.995 57.4654 110.99 57.5149C110.985 57.5645 110.97 57.6124 110.947 57.6557C110.923 57.6991 110.89 57.737 110.852 57.7669C110.813 57.7968 110.769 57.8182 110.721 57.8297Z" fill="#5FCF86"/>
<path d="M108.027 47.2677L21.8399 70.3996C21.7418 70.4195 21.6401 70.4018 21.5538 70.3501C21.4674 70.2983 21.4025 70.2159 21.371 70.1184C21.3517 70.0176 21.3688 69.913 21.4192 69.8243C21.4695 69.7356 21.5497 69.6688 21.6445 69.6365L107.792 46.5046C107.891 46.4799 107.994 46.4955 108.082 46.5479C108.169 46.6004 108.234 46.6856 108.261 46.7858C108.283 46.8816 108.271 46.9822 108.228 47.0702C108.186 47.1583 108.114 47.2281 108.027 47.2677Z" fill="#5FCF86"/>
<path d="M105.331 36.6856L19.1445 59.8175C19.097 59.8294 19.0477 59.8316 18.9994 59.824C18.9511 59.8163 18.9048 59.799 18.863 59.7728C18.8213 59.7467 18.785 59.7124 18.7562 59.6719C18.7274 59.6313 18.7066 59.5851 18.6952 59.5363C18.6806 59.4875 18.6762 59.436 18.6824 59.3853C18.6886 59.3346 18.7051 59.2859 18.7309 59.2423C18.7568 59.1987 18.7913 59.1612 18.8323 59.1322C18.8733 59.1033 18.9198 59.0836 18.9687 59.0745L105.155 35.9227C105.251 35.9036 105.35 35.9218 105.433 35.9738C105.516 36.0258 105.577 36.1077 105.605 36.2037C105.619 36.2538 105.624 36.3065 105.618 36.3585C105.612 36.4104 105.596 36.4606 105.57 36.5058C105.544 36.551 105.51 36.5903 105.469 36.6212C105.428 36.6522 105.381 36.674 105.331 36.6856Z" fill="#5FCF86"/>
<path d="M45.51 34.2098L16.0443 42.1218C15.3554 42.3068 14.9428 43.0309 15.1228 43.7391L15.4437 45.0018C15.6236 45.71 16.328 46.1342 17.017 45.9492L46.4827 38.0372C47.1716 37.8522 47.5842 37.1281 47.4042 36.4199L47.0833 35.1572C46.9033 34.449 46.1989 34.0248 45.51 34.2098Z" fill="#F26524"/>
<path d="M101.617 22.5695L80.1292 28.3525C80.0817 28.3675 80.0316 28.3719 79.9823 28.3656C79.933 28.3592 79.8855 28.3423 79.8431 28.3157C79.8006 28.2891 79.7641 28.2536 79.736 28.2115C79.7079 28.1694 79.6888 28.1216 79.6799 28.0713C79.6557 27.9755 79.6686 27.8738 79.716 27.7876C79.7634 27.7014 79.8415 27.6376 79.9339 27.6095L101.422 21.8266C101.469 21.8115 101.52 21.807 101.569 21.8133C101.618 21.8197 101.666 21.8368 101.708 21.8633C101.751 21.8899 101.787 21.9254 101.815 21.9675C101.843 22.0096 101.862 22.0574 101.871 22.1077C101.886 22.1551 101.891 22.2052 101.886 22.2548C101.881 22.3043 101.866 22.3522 101.842 22.3956C101.819 22.439 101.786 22.4768 101.748 22.5067C101.709 22.5367 101.664 22.558 101.617 22.5695Z" fill="#F26524"/>
<path d="M101.129 20.6619L79.6409 26.4449C79.5934 26.4599 79.5433 26.4643 79.494 26.458C79.4447 26.4517 79.3973 26.4347 79.3548 26.4081C79.3124 26.3816 79.2759 26.3461 79.2477 26.3039C79.2196 26.2618 79.2005 26.214 79.1916 26.1637C79.1674 26.0679 79.1803 25.9662 79.2277 25.88C79.2751 25.7938 79.3532 25.73 79.4456 25.7019L100.934 19.919C100.982 19.9039 101.034 19.8993 101.084 19.9055C101.135 19.9117 101.184 19.9284 101.228 19.9548C101.271 19.9811 101.31 20.0165 101.34 20.0587C101.37 20.1009 101.391 20.1491 101.402 20.2001C101.414 20.2489 101.416 20.2995 101.409 20.3491C101.401 20.3988 101.384 20.4464 101.359 20.4894C101.334 20.5323 101.3 20.5697 101.261 20.5993C101.221 20.6289 101.177 20.6501 101.129 20.6619Z" fill="#F26524"/>
<path d="M61.4287 64.5529L51.8958 67.103C51.8715 67.1123 51.8455 67.1159 51.8197 67.1136C51.7938 67.1113 51.7688 67.103 51.7464 67.0896C51.724 67.0761 51.7047 67.0579 51.69 67.0359C51.6754 67.0139 51.6656 66.9888 51.6614 66.9625C51.6557 66.9387 51.6547 66.9141 51.6585 66.8899C51.6624 66.8658 51.6709 66.8426 51.6837 66.8219C51.6965 66.8012 51.7133 66.7835 51.7329 66.7697C51.7526 66.7559 51.7748 66.7463 51.7982 66.7416L61.3311 64.1714C61.3799 64.1635 61.4299 64.1732 61.4726 64.1988C61.5153 64.2244 61.5481 64.2644 61.5655 64.3119C61.5775 64.3625 61.57 64.4159 61.5445 64.4608C61.519 64.5058 61.4775 64.5388 61.4287 64.5529Z" fill="white"/>
<path d="M61.8773 66.3629L52.3445 68.913C52.3213 68.9189 52.2973 68.9199 52.2738 68.916C52.2503 68.912 52.2278 68.9033 52.2077 68.8901C52.1876 68.877 52.1703 68.8597 52.1569 68.8395C52.1434 68.8193 52.1342 68.7965 52.1296 68.7725C52.1205 68.7488 52.1163 68.7235 52.1174 68.6981C52.1184 68.6727 52.1247 68.6478 52.1357 68.625C52.1468 68.6023 52.1624 68.5822 52.1816 68.5661C52.2007 68.5499 52.2229 68.5382 52.2468 68.5315L61.7797 65.9813C61.8289 65.969 61.8808 65.9767 61.9245 66.0029C61.9682 66.0291 62.0003 66.0718 62.0141 66.1219C62.0217 66.1721 62.0123 66.2235 61.9874 66.2674C61.9625 66.3113 61.9236 66.345 61.8773 66.3629Z" fill="white"/>
<path d="M62.351 68.1486L52.8181 70.7188C52.7689 70.7311 52.717 70.7234 52.6733 70.6972C52.6296 70.671 52.5975 70.6283 52.5837 70.5782C52.5717 70.5276 52.5792 70.4744 52.6047 70.4294C52.6302 70.3845 52.6717 70.3514 52.7205 70.3372L62.2533 67.7872C62.2763 67.7778 62.301 67.7735 62.3257 67.7746C62.3504 67.7757 62.3747 67.7822 62.3968 67.7936C62.4189 67.8049 62.4384 67.821 62.4541 67.8406C62.4698 67.8603 62.4813 67.8831 62.4878 67.9077C62.4998 67.9582 62.4922 68.0115 62.4667 68.0565C62.4412 68.1014 62.3998 68.1345 62.351 68.1486Z" fill="white"/>
<path d="M79.9562 69.496L72.3572 71.504C72.308 71.5163 72.2561 71.5086 72.2124 71.4824C72.1686 71.4562 72.1365 71.4135 72.1228 71.3634C72.1108 71.3128 72.1183 71.2594 72.1438 71.2145C72.1693 71.1695 72.2108 71.1366 72.2595 71.1224L79.8585 69.1145C79.9073 69.1066 79.9573 69.1163 80 69.1419C80.0427 69.1675 80.0755 69.2075 80.0929 69.255C80.1049 69.3056 80.0974 69.359 80.0719 69.404C80.0464 69.4489 80.0049 69.4819 79.9562 69.496Z" fill="white"/>
<path d="M80.4453 71.3231L72.8464 73.331C72.7972 73.3434 72.7453 73.3357 72.7015 73.3095C72.6578 73.2832 72.6257 73.2407 72.612 73.1906C72.6043 73.1404 72.6137 73.089 72.6386 73.0451C72.6636 73.0012 72.7024 72.9674 72.7487 72.9495L80.3477 70.9415C80.372 70.9323 80.398 70.9288 80.4239 70.9311C80.4497 70.9334 80.4747 70.9416 80.4971 70.955C80.5195 70.9684 80.5388 70.9868 80.5535 71.0088C80.5681 71.0308 80.5779 71.0558 80.5821 71.0821C80.5941 71.1327 80.5866 71.1861 80.5611 71.231C80.5356 71.276 80.4941 71.3089 80.4453 71.3231Z" fill="white"/>
<path d="M80.8716 73.1103L73.2726 75.1182C73.2235 75.1306 73.1715 75.1229 73.1278 75.0967C73.0841 75.0704 73.052 75.0277 73.0382 74.9777C73.0292 74.9526 73.0258 74.9259 73.028 74.8993C73.0303 74.8728 73.0382 74.8471 73.0513 74.8241C73.0644 74.8011 73.0822 74.7812 73.1036 74.7661C73.125 74.751 73.1494 74.741 73.175 74.7367L80.7739 72.7287C80.8228 72.7209 80.8728 72.7306 80.9155 72.7562C80.9582 72.7818 80.991 72.8217 81.0083 72.8693C81.0204 72.9199 81.0128 72.9733 80.9873 73.0182C80.9618 73.0632 80.9203 73.0961 80.8716 73.1103Z" fill="white"/>
<path d="M63.7005 85.0777C63.3716 85.1634 63.0231 85.1124 62.7305 84.9358C62.438 84.7591 62.225 84.4709 62.1377 84.1339C62.0538 83.7932 62.1028 83.4324 62.2744 83.1284C62.446 82.8245 62.7265 82.6016 63.0559 82.5074C63.3899 82.4219 63.7433 82.4751 64.0395 82.6555C64.3356 82.8359 64.5507 83.1291 64.6381 83.4713C64.7209 83.8122 64.6686 84.1728 64.4927 84.474C64.3169 84.7752 64.032 84.9923 63.7005 85.0777ZM63.1535 82.889C63.0373 82.9192 62.9281 82.9731 62.8324 83.0474C62.7368 83.1217 62.6566 83.2149 62.5965 83.3216C62.5364 83.4282 62.4977 83.5461 62.4827 83.6684C62.4676 83.7907 62.4765 83.9148 62.5089 84.0335C62.5383 84.153 62.5907 84.2652 62.663 84.3636C62.7353 84.4619 62.826 84.5443 62.9297 84.6061C63.0335 84.6678 63.1482 84.7077 63.2672 84.7231C63.3861 84.7386 63.5069 84.7294 63.6223 84.6962C63.8543 84.6303 64.0518 84.4734 64.1723 84.2594C64.2929 84.0453 64.3269 83.7912 64.267 83.5516C64.1986 83.316 64.0453 83.1162 63.8383 82.993C63.6313 82.8698 63.3863 82.8326 63.1535 82.889Z" fill="#F26524"/>
</g>
<defs>
<clipPath id="clip0_67_10049">
<rect width="136" height="136" fill="white"/>
</clipPath>
</defs>
</svg>
