<svg width="136" height="136" viewBox="0 0 136 136" fill="none" xmlns="http://www.w3.org/2000/svg">
<g clip-path="url(#clip0_67_10162)">
<path d="M93.0558 0.564678L13.3164 20.8065C3.84775 23.2102 -1.82298 32.6178 0.650482 41.8192L21.4805 119.307C23.9539 128.508 33.6349 134.019 43.1036 131.615L122.843 111.373C132.312 108.97 137.982 99.5621 135.509 90.3608L114.679 12.873C112.205 3.67168 102.524 -1.83895 93.0558 0.564678Z" fill="#EFFAF3"/>
<path d="M68.9318 103.489C68.9439 109.468 67.251 115.333 64.0412 120.434C63.5096 121.295 62.9248 122.155 62.2692 122.93C61.6136 123.705 61.3655 124.067 60.8693 124.652C59.5835 126.12 58.1662 127.474 56.6343 128.699C56.1204 129.095 55.6065 129.491 55.0749 129.853L54.1889 130.455C53.6751 130.8 53.1612 131.127 52.6119 131.437L52.2929 131.626L51.9562 131.816C50.8901 132.405 49.7896 132.934 48.6603 133.4C46.2334 134.422 43.6862 135.151 41.0762 135.57C40.7927 135.57 40.4915 135.673 40.208 135.725C39.4637 135.828 38.7018 135.897 37.9398 135.948H37.7094H36.1147H35.5476C32.9032 135.944 30.2685 135.638 27.6977 135.036C25.6758 134.568 23.7055 133.911 21.8147 133.073C20.3247 132.424 18.8855 131.67 17.5088 130.817C16.9949 130.507 16.4988 130.163 16.0026 129.818C15.5065 129.474 14.8508 128.992 14.2306 128.527C12.7789 127.38 11.4329 126.113 10.2082 124.738L9.41081 123.826L8.59569 122.793L8.27674 122.362C7.38853 121.168 6.5891 119.913 5.88455 118.608C5.60103 118.092 5.33525 117.558 5.06945 117.024C3.04526 112.759 1.99928 108.117 2.00392 103.421C2.01554 99.1513 2.89239 94.9259 4.58441 90.9859C6.27643 87.0458 8.75048 83.4683 11.8653 80.4574C14.9801 77.4465 18.6747 75.0613 22.7381 73.438C26.8016 71.8146 31.1542 70.9849 35.5476 70.9962C44.4051 71.0144 52.8937 74.4453 59.1519 80.5365C65.4101 86.6277 68.9272 94.8821 68.9318 103.489Z" fill="white"/>
<path d="M44.4054 95.844C44.4054 97.6693 43.608 99.2879 42.4208 99.2879C41.2336 99.2879 40.2235 97.8932 40.1349 96.0679C40.0463 94.2426 40.95 92.7101 42.1195 92.624C43.2891 92.5379 44.4054 94.0015 44.4054 95.844Z" fill="#2E2837"/>
<path d="M55.0368 129.818L54.1508 130.421C53.5306 130.834 52.9104 131.23 52.2548 131.592C48.5349 133.7 44.4317 135.091 40.1698 135.69H39.5319C38.4033 135.831 37.2675 135.912 36.1297 135.931H35.5449C32.9006 135.927 30.2659 135.62 27.695 135.018C24.0797 134.176 20.6355 132.75 17.5061 130.8C16.3817 130.112 15.3098 129.347 14.2988 128.509C12.8471 127.363 11.5012 126.095 10.2764 124.721L9.479 123.808C9.07144 118.229 14.4583 112.857 15.4152 111.755C18.5161 108.208 27.2166 106.227 35.7576 106.451C35.7576 106.451 47.3995 106.451 52.2371 111.445C54.2926 113.752 55.0368 121.622 55.0368 129.818Z" fill="#5FCF86"/>
<path d="M16.3735 110.894L15.9305 129.835C15.3458 129.422 14.7787 129.009 14.1585 128.544C12.7068 127.397 11.3609 126.13 10.1362 124.756L9.33876 123.843L8.52364 122.81L8.20469 122.379C7.31648 121.185 6.51705 119.93 5.8125 118.625C9.09644 115.757 12.63 113.17 16.3735 110.894Z" fill="#5FCF86"/>
<path d="M60.9044 124.618C59.6185 126.086 58.2013 127.44 56.6693 128.664C56.1555 129.06 55.6416 129.457 55.11 129.818L54.224 130.421C54.0954 130.522 53.9592 130.614 53.8164 130.696L53.3026 131.024L52.328 131.592C51.1561 132.24 49.9428 132.816 48.6954 133.314L44.5312 129.99L52.452 111.789L60.9044 124.618Z" fill="#5FCF86"/>
<path d="M29.3071 100.666L28.7578 107.192C28.7578 107.192 29.2185 109.172 33.6131 109.861C34.5083 110.038 35.4342 110.004 36.313 109.761C37.1919 109.519 37.9978 109.074 38.6632 108.466V107.054L38.5215 103.386L30.6716 101.062L29.3071 100.666Z" fill="#EBC3A5"/>
<path d="M30.6211 101.062C30.6403 101.308 30.694 101.552 30.7806 101.785C32.1804 105.59 36.7344 106.744 38.6127 107.054L38.471 103.386L30.6211 101.062Z" fill="#2E2837"/>
<path d="M41.5549 86.7866C41.5549 86.7866 44.7445 96.309 42.7598 101.303C40.7752 106.296 36.044 105.039 33.262 103.765C31.6816 103.097 30.3163 102.026 29.3104 100.666C28.4662 100.825 27.5916 100.722 26.8118 100.369C26.032 100.016 25.387 99.4331 24.9691 98.7026C24.641 98.2403 24.4168 97.7158 24.3113 97.1637C24.2058 96.6115 24.2212 96.044 24.3567 95.4981C24.4921 94.9521 24.7445 94.44 25.0973 93.9952C25.4502 93.5505 25.8955 93.1829 26.4044 92.9167C26.9806 92.8123 27.5728 92.8258 28.1434 92.9562C28.7139 93.0867 29.2502 93.3313 29.718 93.6744L28.5485 90.8848C28.5485 90.8848 35.92 77.8841 41.5549 86.7866Z" fill="#EBC3A5"/>
<path d="M39.9926 98.4096H39.8508C39.764 98.3752 39.6947 98.3089 39.6582 98.225C39.6216 98.1411 39.6208 98.0464 39.6559 97.9619C39.8384 97.3754 39.8979 96.7593 39.831 96.15C39.764 95.5407 39.5719 94.9506 39.2661 94.4147C39.221 94.3321 39.2105 94.2358 39.237 94.1459C39.2634 94.0561 39.3246 93.9796 39.4078 93.9326C39.4901 93.8896 39.5866 93.88 39.6762 93.9058C39.7658 93.9316 39.8413 93.9908 39.8862 94.0704C40.2484 94.699 40.4745 95.3928 40.5507 96.1094C40.6268 96.826 40.5515 97.5502 40.3292 98.2375C40.2929 98.2917 40.2429 98.3361 40.184 98.3662C40.1251 98.3964 40.0591 98.4113 39.9926 98.4096Z" fill="#2E2837"/>
<path d="M28.9 97.8932C28.856 97.8946 28.8123 97.8859 28.7723 97.868C28.7323 97.8501 28.6971 97.8233 28.6696 97.7899L26.4015 94.897C26.3747 94.8729 26.3532 94.8436 26.3386 94.811C26.324 94.7784 26.3164 94.7432 26.3164 94.7077C26.3164 94.6721 26.324 94.6368 26.3386 94.6042C26.3532 94.5716 26.3747 94.5423 26.4015 94.5182C26.4264 94.4921 26.4565 94.4713 26.4901 94.4571C26.5236 94.4429 26.5598 94.4355 26.5964 94.4355C26.633 94.4355 26.6692 94.4429 26.7028 94.4571C26.7363 94.4713 26.7665 94.4921 26.7913 94.5182L29.0595 97.3939C29.0893 97.4181 29.1132 97.4484 29.1297 97.4826C29.1461 97.5168 29.1546 97.5541 29.1546 97.5919C29.1546 97.6297 29.1461 97.667 29.1297 97.7012C29.1132 97.7354 29.0893 97.7657 29.0595 97.7899C29.0413 97.8166 29.0178 97.8394 28.9904 97.8572C28.963 97.8749 28.9323 97.8871 28.9 97.8932Z" fill="#2E2837"/>
<path d="M26.2601 96.9289C26.1862 96.9248 26.1166 96.8945 26.0643 96.8437C26.012 96.7929 25.9808 96.7252 25.9766 96.6535C25.9764 96.5787 26.0057 96.5067 26.0584 96.4523C26.1112 96.3979 26.1833 96.3651 26.2601 96.3607H28.032C28.0693 96.3583 28.1067 96.3632 28.142 96.375C28.1773 96.3867 28.2099 96.4051 28.2379 96.4291C28.2659 96.4531 28.2887 96.4822 28.3051 96.5148C28.3215 96.5473 28.331 96.5828 28.3333 96.619C28.3334 96.6938 28.3041 96.7657 28.2514 96.8202C28.1987 96.8746 28.1266 96.9073 28.0498 96.9117H26.2778L26.2601 96.9289Z" fill="#2E2837"/>
<path d="M36.097 94.5697C36.0031 94.5697 35.9129 94.5334 35.8465 94.4688C35.78 94.4042 35.7427 94.3166 35.7427 94.2253V92.5033C35.7402 92.4589 35.7472 92.4146 35.763 92.3729C35.7789 92.3312 35.8033 92.293 35.8348 92.2607C35.8663 92.2285 35.9042 92.2029 35.9463 92.1854C35.9883 92.1679 36.0336 92.1588 36.0793 92.1589C36.1259 92.1566 36.1725 92.1632 36.2164 92.1784C36.2603 92.1936 36.3007 92.2171 36.3353 92.2475C36.3698 92.2779 36.3979 92.3146 36.4178 92.3555C36.4377 92.3965 36.4492 92.4408 36.4514 92.4861V94.208C36.4538 94.2524 36.4469 94.2969 36.4311 94.3386C36.4152 94.3803 36.3908 94.4184 36.3593 94.4506C36.3278 94.4828 36.2899 94.5086 36.2478 94.5261C36.2058 94.5436 36.1605 94.5525 36.1148 94.5524L36.097 94.5697Z" fill="#2E2837"/>
<path d="M41.3392 94.6903C41.2935 94.6926 41.2478 94.6859 41.2049 94.6705C41.162 94.6551 41.1228 94.6314 41.0896 94.6007C41.0564 94.5701 41.03 94.5332 41.012 94.4924C40.994 94.4515 40.9848 94.4076 40.9848 94.3631V92.6412C40.9824 92.5945 40.9898 92.5479 41.0065 92.5041C41.0233 92.4603 41.049 92.4202 41.0821 92.3864C41.1153 92.3526 41.1552 92.3256 41.1994 92.3072C41.2436 92.2889 41.2911 92.2794 41.3392 92.2795C41.3858 92.2772 41.4323 92.2839 41.4762 92.2991C41.5202 92.3142 41.5605 92.3377 41.5951 92.3681C41.6297 92.3985 41.6577 92.4352 41.6777 92.4761C41.6976 92.5171 41.709 92.5614 41.7113 92.6067V94.3286C41.7163 94.3744 41.7113 94.4207 41.6966 94.4644C41.682 94.5082 41.6579 94.5484 41.6262 94.5826C41.5944 94.6167 41.5556 94.644 41.5122 94.6625C41.4689 94.6811 41.422 94.6905 41.3746 94.6903H41.3392Z" fill="#2E2837"/>
<path d="M35.2272 91.3325C35.1635 91.3503 35.096 91.3503 35.0323 91.3325C34.9937 91.3067 34.9607 91.2737 34.9354 91.2354C34.91 91.1971 34.8927 91.1543 34.8844 91.1094C34.8762 91.0646 34.8772 91.0186 34.8874 90.9742C34.8975 90.9297 34.9167 90.8877 34.9437 90.8505C35.2334 90.5117 35.6262 90.2709 36.0655 90.1626C36.5049 90.0543 36.9682 90.0841 37.389 90.2477C37.433 90.2612 37.4736 90.2832 37.5084 90.3126C37.5432 90.3419 37.5714 90.3778 37.5914 90.4182C37.6113 90.4585 37.6225 90.5024 37.6243 90.5471C37.626 90.5919 37.6184 90.6365 37.6017 90.6782C37.5877 90.723 37.5645 90.7647 37.5334 90.8005C37.5023 90.8364 37.4641 90.8657 37.4209 90.8866C37.3778 90.9076 37.3308 90.9197 37.2826 90.9223C37.2345 90.925 37.1863 90.9181 37.141 90.9021C37.141 90.9021 36.0423 90.5233 35.5285 91.2465C35.4878 91.2813 35.4397 91.3071 35.3877 91.3219C35.3356 91.3368 35.2809 91.3404 35.2272 91.3325Z" fill="#2E2837"/>
<path d="M42.0851 91.3324C42.0209 91.3345 41.9573 91.3196 41.9011 91.2893C41.8449 91.2589 41.7983 91.2143 41.7662 91.1602C41.6098 90.9176 41.3719 90.735 41.0928 90.6435C40.9936 90.6291 40.8925 90.6339 40.7952 90.6575C40.6979 90.6811 40.6063 90.7232 40.5258 90.7813C40.4942 90.8147 40.4559 90.8414 40.4132 90.8596C40.3705 90.8779 40.3243 90.8874 40.2777 90.8874C40.231 90.8874 40.1849 90.8779 40.1422 90.8596C40.0995 90.8414 40.0612 90.8147 40.0296 90.7813C40.0001 90.745 39.9788 90.703 39.9672 90.6581C39.9556 90.6132 39.9539 90.5665 39.9623 90.5209C39.9706 90.4753 39.9889 90.432 40.0158 90.3938C40.0426 90.3556 40.0776 90.3234 40.1182 90.2992C40.2765 90.1848 40.4571 90.1028 40.649 90.0584C40.841 90.014 41.0402 90.008 41.2346 90.0409C41.7123 90.1748 42.1224 90.4752 42.3864 90.8846C42.4118 90.9239 42.4288 90.9678 42.4363 91.0137C42.4438 91.0595 42.4417 91.1063 42.4301 91.1514C42.4185 91.1964 42.3977 91.2388 42.3688 91.2758C42.34 91.3128 42.3038 91.3438 42.2623 91.3668C42.2011 91.3713 42.1399 91.3593 42.0851 91.3324Z" fill="#2E2837"/>
<path d="M41.5548 86.7864L40.9523 85.9254C40.2072 86.3405 39.3906 86.6207 38.5424 86.752C36.7204 87.0828 34.8661 87.2156 33.0138 87.148C33.4435 88.1788 33.5782 89.3034 33.4036 90.4026C33.2769 91.2348 32.9533 92.0271 32.4583 92.7173C31.9633 93.4075 31.3103 93.9767 30.5507 94.3803C29.812 93.8422 28.9854 93.4289 28.1054 93.1576C27.8449 93.0793 27.5782 93.0218 27.308 92.9855C26.9076 92.9114 26.4939 92.9461 26.1124 93.0859C25.731 93.2256 25.3966 93.465 25.1462 93.7775C25.1462 93.7775 21.6022 88.1812 25.7132 84.1519C26.9119 83.1039 28.3516 82.3506 29.9117 81.9551C31.4719 81.5596 33.1068 81.5335 34.6795 81.8789C35.1489 81.9497 35.6113 82.0592 36.0616 82.206C36.0616 82.206 42.3345 80.7596 43.3799 81.655C44.4254 82.5504 42.299 86.8208 41.5548 86.7864Z" fill="#2E2837"/>
<path d="M37.9224 101.027C37.6548 101.024 37.3902 100.971 37.1428 100.872C36.9763 100.814 36.8242 100.722 36.6961 100.604C36.568 100.485 36.4667 100.342 36.3985 100.183C36.2578 99.8049 36.2578 99.3906 36.3985 99.0123C36.4457 98.9279 36.5206 98.8611 36.6112 98.8228C36.7023 98.7882 36.8035 98.7882 36.8947 98.8228L39.2337 99.9594C39.2866 99.9866 39.332 100.026 39.3659 100.074C39.3998 100.122 39.4214 100.177 39.4286 100.235C39.4386 100.294 39.4304 100.355 39.4053 100.41C39.3801 100.465 39.3389 100.512 39.2869 100.545C38.8939 100.838 38.4174 101.006 37.9224 101.027ZM37.0365 99.6667C37.0103 99.7509 37.0103 99.8407 37.0365 99.9249C37.067 99.9947 37.113 100.057 37.1712 100.108C37.2294 100.158 37.2983 100.196 37.3731 100.218C37.6609 100.31 37.9714 100.31 38.2591 100.218L37.0365 99.6667Z" fill="#2E2837"/>
<path d="M30.4055 96.55C30.4941 98.3753 29.6081 99.9078 28.4209 99.9939C27.2336 100.08 26.2236 98.599 26.135 96.7737C26.0464 94.9485 26.9324 93.3298 28.1196 93.3298C29.3069 93.3298 30.3169 94.7075 30.4055 96.55Z" fill="#2E2837"/>
<path d="M27.8356 99.9734C29.0088 99.9218 29.8907 98.3935 29.8053 96.56C29.72 94.7264 28.6997 93.2818 27.5266 93.3334C26.3534 93.385 25.4715 94.9131 25.5569 96.7467C25.6422 98.5803 26.6625 100.025 27.8356 99.9734Z" fill="#2E2837"/>
<path d="M28.1022 93.1577C28.1412 93.505 28.2004 93.8499 28.2794 94.1908C28.2926 94.2417 28.2952 94.2947 28.2872 94.3466C28.2792 94.3985 28.2606 94.4483 28.2326 94.4932C28.2045 94.5381 28.1676 94.5771 28.1239 94.608C28.0803 94.6388 28.0307 94.6609 27.9782 94.673C27.8832 94.6802 27.7887 94.6548 27.7111 94.6013C27.6334 94.5479 27.5774 94.4697 27.5529 94.3803C27.4391 93.9231 27.3738 93.4557 27.358 92.9855C27.1562 90.6037 27.7693 88.2238 29.1023 86.2154C30.4353 84.2071 32.4134 82.6826 34.7294 81.8789C35.1988 81.9498 35.6612 82.0592 36.1116 82.2061C28.1377 84.8579 27.8718 90.747 28.1022 93.1577Z" fill="#2E2837"/>
<path d="M33.8822 102.232C32.6144 102.243 31.3605 101.975 30.2133 101.451C29.0661 100.926 28.055 100.158 27.255 99.2017C27.2247 99.1588 27.2034 99.1105 27.1924 99.0595C27.1813 99.0086 27.1807 98.956 27.1906 98.9048C27.2004 98.8536 27.2206 98.8049 27.2499 98.7613C27.2792 98.7177 27.3171 98.6801 27.3613 98.6507C27.4031 98.6208 27.4505 98.5994 27.5008 98.5875C27.5512 98.5757 27.6034 98.5737 27.6546 98.5817C27.7057 98.5898 27.7547 98.6076 27.7987 98.6342C27.8427 98.6608 27.8807 98.6957 27.9107 98.7368C28.7514 99.7412 29.8479 100.514 31.0913 100.98C32.3347 101.445 33.6818 101.586 34.9986 101.389C35.104 101.379 35.2092 101.409 35.2919 101.474C35.3746 101.538 35.4283 101.631 35.4416 101.733C35.4519 101.784 35.4505 101.838 35.4376 101.888C35.4247 101.939 35.4006 101.987 35.3669 102.028C35.3332 102.069 35.2907 102.102 35.2424 102.126C35.1941 102.149 35.1412 102.162 35.0872 102.163C34.6877 102.214 34.2851 102.237 33.8822 102.232Z" fill="#2E2837"/>
<path d="M36.426 102.724C37.4428 102.679 38.2462 102.196 38.2206 101.645C38.1949 101.094 37.3499 100.684 36.3332 100.729C35.3164 100.773 34.513 101.256 34.5386 101.807C34.5643 102.358 35.4093 102.769 36.426 102.724Z" fill="#2E2837"/>
<path d="M52.6466 131.403L52.3277 131.592L51.991 131.781L49.1381 118.746C49.1221 118.655 49.1426 118.562 49.1953 118.485C49.248 118.408 49.329 118.354 49.4216 118.333C49.4659 118.323 49.5118 118.321 49.5566 118.329C49.6014 118.337 49.6441 118.353 49.6822 118.377C49.7203 118.402 49.7529 118.433 49.7782 118.47C49.8035 118.506 49.8208 118.548 49.8292 118.591L52.6466 131.403Z" fill="#E8F3FD"/>
<path d="M73.3952 63.9017C74.3266 67.1435 75.9983 70.1393 78.2858 72.6664C80.3647 74.9761 82.91 76.8459 85.7636 78.1595C88.6142 79.4802 91.7153 80.213 94.8716 80.3119C98.0255 80.4114 101.167 79.8841 104.104 78.7622C107.035 77.63 109.7 75.9311 111.936 73.7685C112.029 73.6695 112.144 73.5928 112.273 73.5446C112.406 73.5111 112.546 73.5111 112.68 73.5446L121.859 73.9924C122.048 74.031 122.245 74.0121 122.422 73.9381C122.6 73.8642 122.75 73.7388 122.851 73.5791C123.064 73.2175 122.851 72.9075 122.674 72.5976L117.801 65.7098C117.695 65.5662 117.622 65.4016 117.589 65.2277C117.544 65.064 117.544 64.8919 117.589 64.7282C118.55 61.9064 118.908 58.9231 118.64 55.9619C118.372 53.0006 117.484 50.1239 116.029 47.5087C113.267 42.3911 108.574 38.5101 102.934 36.6776C97.2957 34.8436 91.1471 35.1889 85.7636 37.6419C80.8174 39.9045 76.856 43.7968 74.5824 48.628C72.2714 53.482 71.8251 58.9796 73.3243 64.1256L73.3952 63.9017Z" fill="#5CB3FF"/>
<path d="M58.3674 55.8946L92.8857 55.3092C93.5299 55.3139 94.1687 55.1934 94.7644 54.9549C95.3601 54.7164 95.9008 54.3647 96.3547 53.9204C96.8086 53.4761 97.1666 52.9482 97.4077 52.3676C97.6488 51.787 97.7681 51.1654 97.7587 50.5394L97.3688 26.2771L96.5891 24.7789C95.0475 23.6768 93.4704 22.6438 91.8402 21.645L39.4957 21.8516C38.8598 21.8516 38.2301 21.9739 37.643 22.2114C37.056 22.4489 36.523 22.797 36.075 23.2356C35.627 23.6742 35.2727 24.1946 35.0326 24.7668C34.7925 25.339 34.6712 25.9518 34.6759 26.5698L34.7645 51.0732C34.7668 51.6905 34.8943 52.3013 35.1395 52.8708C35.3848 53.4403 35.7431 53.9573 36.1939 54.3922C36.6448 54.8271 37.1794 55.1715 37.7672 55.4057C38.355 55.6399 38.9845 55.7592 39.6198 55.7569H47.2393L44.794 67.604C44.7886 67.6742 44.8067 67.7442 44.8455 67.8036C44.8843 67.863 44.9418 67.9086 45.0095 67.9337C45.0771 67.9588 45.1513 67.9621 45.221 67.943C45.2907 67.924 45.3522 67.8835 45.3964 67.8278L58.3674 55.8946Z" fill="#5FCF86"/>
<path d="M43.8196 31.9251H88.9521C89.1871 31.9251 89.4124 31.8344 89.5786 31.6729C89.7447 31.5115 89.8381 31.2924 89.8381 31.0641C89.8381 30.8358 89.7447 30.6167 89.5786 30.4553C89.4124 30.2938 89.1871 30.2031 88.9521 30.2031H43.8196C43.5846 30.2031 43.3593 30.2938 43.1931 30.4553C43.027 30.6167 42.9336 30.8358 42.9336 31.0641C42.9336 31.2924 43.027 31.5115 43.1931 31.6729C43.3593 31.8344 43.5846 31.9251 43.8196 31.9251Z" fill="white"/>
<path d="M43.8196 39.5533H88.9521C89.1871 39.5533 89.4124 39.4626 89.5786 39.3011C89.7447 39.1397 89.8381 38.9206 89.8381 38.6923C89.8381 38.4639 89.7447 38.245 89.5786 38.0835C89.4124 37.9221 89.1871 37.8313 88.9521 37.8313H43.8196C43.5846 37.8313 43.3593 37.9221 43.1931 38.0835C43.027 38.245 42.9336 38.4639 42.9336 38.6923C42.9336 38.9206 43.027 39.1397 43.1931 39.3011C43.3593 39.4626 43.5846 39.5533 43.8196 39.5533Z" fill="white"/>
<path d="M43.8196 47.0955H88.9521C89.1871 47.0955 89.4124 47.0048 89.5786 46.8434C89.7447 46.6819 89.8381 46.4629 89.8381 46.2345C89.8381 46.0062 89.7447 45.7871 89.5786 45.6257C89.4124 45.4642 89.1871 45.3735 88.9521 45.3735H43.8196C43.5846 45.3735 43.3593 45.4642 43.1931 45.6257C43.027 45.7871 42.9336 46.0062 42.9336 46.2345C42.9336 46.4629 43.027 46.6819 43.1931 46.8434C43.3593 47.0048 43.5846 47.0955 43.8196 47.0955Z" fill="white"/>
<path d="M120.122 121.777C122.512 120.793 124.404 118.928 125.38 116.59C126.357 114.253 126.34 111.634 125.331 109.31C124.319 106.987 122.4 105.149 119.994 104.199C117.589 103.25 114.895 103.267 112.502 104.247C110.112 105.231 108.22 107.096 107.243 109.433C106.267 111.771 106.284 114.389 107.293 116.714C108.305 119.037 110.224 120.875 112.629 121.824C115.035 122.774 117.729 122.756 120.122 121.777Z" fill="#DF6D39"/>
<path d="M114.434 107.984C115.656 107.984 116.578 109.706 116.666 112.03C118.846 111.273 120.813 111.376 121.38 112.461C121.947 113.546 120.565 115.698 118.031 116.852C116.703 117.423 115.265 117.711 113.814 117.696C112.821 117.696 112.662 117.42 112.414 116.8C111.811 115.51 111.526 114.101 111.581 112.685C111.74 109.999 113.052 107.898 114.434 107.984Z" fill="white"/>
<path d="M85.7479 95.1035C85.9218 93.5371 85.4481 91.9678 84.4313 90.7406C83.4144 89.5135 81.9376 88.7292 80.3256 88.5601C78.7146 88.3959 77.1021 88.8578 75.8405 89.8451C74.5788 90.8324 73.7705 92.2648 73.5921 93.8293C73.4231 95.3949 73.8984 96.9618 74.9144 98.1878C75.9304 99.4138 77.4043 100.199 79.0144 100.373C80.6263 100.542 82.2413 100.081 83.5041 99.0932C84.7669 98.1051 85.574 96.67 85.7479 95.1035Z" fill="#DF6D39"/>
<path d="M76.3025 93.8638C76.71 93.2267 77.9682 93.2611 79.2617 93.8638C79.4921 92.4862 80.1477 91.4874 80.9274 91.5046C81.707 91.5218 82.4867 92.9167 82.3627 94.6042C82.2789 95.4814 82.0073 96.3318 81.5653 97.101C81.2641 97.6348 81.0691 97.6348 80.6438 97.5659C79.7408 97.5109 78.8624 97.2577 78.0745 96.8255C76.586 95.8956 75.8241 94.5526 76.3025 93.8638Z" fill="white"/>
</g>
<defs>
<clipPath id="clip0_67_10162">
<rect width="136" height="136" fill="white"/>
</clipPath>
</defs>
</svg>
